<svg xmlns="http://www.w3.org/2000/svg" width="459" height="308" viewBox="0 0 459 308">
    <g fill="none" fill-rule="evenodd" opacity=".8">
        <g fill="#0056A5">
            <path d="M223.409 63.577c2.986 10.298 4.008 21.225 3.104 32.78-.196 2.28-.432 4.56-.746 6.88-2.87 20.006-11.24 41.585-25.19 64.736-21.418 35.493-44.368 64.54-68.772 87.18-22.675 21.067-45.27 31.562-67.75 31.562-22.36 0-39.376-10.416-51.047-31.248C5.777 242.575 1.61 227.757.55 210.973c-.196-3.066-.314-6.21-.314-9.394 0-9.63.943-19.928 2.83-30.855C9.47 132.676 24.835 98.677 49.24 68.765c26.605-32.623 59.812-49.76 99.62-51.372 40.281-1.611 65.117 13.757 74.549 46.184zM455.974 169.702c-4.716 35.807-15.051 64.697-31.045 86.63-10.69 14.66-23.461 25.548-38.316 32.702-15.562 7.468-33.757 11.005-54.624 10.573-42.599-.904-69.164-16.115-79.775-45.712-4.126-11.478-4.047-24.724.118-39.738 4.205-15.015 13.4-37.183 27.627-66.505 14.186-29.322 31.084-56.01 50.655-80.026 19.57-24.016 40.594-36.083 63.151-36.083 22.557 0 39.849 11.32 51.795 33.881 7.27 13.757 11.475 29.401 12.536 47.01 1.218 18.474.472 37.576-2.122 57.268z"/>
        </g>
        <path fill="#EFEFEF" d="M155.487 127.368c-.039 5.009.078 10.097.313 15.224.743 16.368 2.658 30.054 5.746 41.019 2.97 10.728 9.967 19.918 20.989 27.53 2.658 1.853 6.606 4.22 11.843 7.178 4.026 2.248 6.45 3.865 7.31 4.812a91.468 91.468 0 0 1-5.512 5.048 2.856 2.856 0 0 1-.43.355l-1.368 1.144c-2.775 2.17-5.55 3.944-8.364 5.364-2.62 1.262-5.003 2.09-7.075 2.445l-.039.04h-.117c-2.736.434-5.12.197-7.114-.79-2.697-1.182-5.902-2.997-9.576-5.442-4.221-2.84-8.13-5.956-11.726-9.387-9.537-8.914-14.853-17.59-16.025-26.031-4.69-34.116-7.31-52.023-7.857-53.68-2.345-6.901-1.641-13.449 2.11-19.68 2.776-4.694 6.841-7.928 12.118-9.782 1.954-.67 4.104-1.143 6.41-1.42 3.479-.552 6.332 2.761 8.56 9.94l-.196 6.113z"/>
        <g fill="#D1D1D1">
            <path d="M156.938 114.598c-5.78-14.777-14.33-24.995-25.65-30.694l19.237-53.607 19.119.55c-16.704 37.061-21.613 61.782-14.686 74.044 2.336 4.205 2.97 7.428 1.98 9.707zM150.525 30.258l-19.237 53.607-9.46 26.41c-33.25-27.472-36.378-54.472-9.422-81.078l38.119 1.06z"/>
            <path d="M131.248 83.865c11.32 5.698 19.87 15.956 25.65 30.694-2.058 4.598-11.004 5.306-26.838 2.122-2.968-2.161-5.74-4.284-8.312-6.406l9.5-26.41z"/>
        </g>
        <path fill="#FFF" d="M8.502 248.797c-1.737-3.861-3.199-7.92-4.423-12.135 18.957-37.667 37.164-74.978 54.62-111.975 1.027-2.837 2.804-6.028 5.331-9.574a68.36 68.36 0 0 1 8.492-10.126c3.159-3.152 6.95-5.989 11.413-8.51 4.384-2.522 8.491-3.901 12.362-4.177.71-.079 2.527-.197 5.45-.433 2.29-.237 4.265-.394 5.845-.394a44.325 44.325 0 0 1 3.989-.079h1.224c1.027 0 2.054 0 3.12.04.75-.04 1.5 0 2.29.039 3.476.079 8.61.315 15.403.709 8.294 1.497 14.731 4.689 19.313 9.614 3.633 3.9 5.845 8.668 6.635 14.262.118 1.025.237 2.089.276 3.192.04 1.064.079 2.127.04 3.23-.356 9.378-3.16 21.08-8.452 35.106-12.164 36.918-22.393 72.85-30.647 107.759-6.32 4.925-12.638 9.062-18.957 12.332 11.413-23.916 26.263-69.738 44.588-137.427-9.992 32.111-18.878 58.194-26.619 78.248-8.372 21.67-15.797 35.342-22.234 41.016-6.556 5.792-10.23-3.27-10.98-27.186-.671-22.025-.513-52.087.395-90.147l-4.7 48.58c-3.08 31.874-4.423 56.893-4.028 75.057.158 8.353.711 15.011 1.58 20.054-5.41 1.182-10.782 1.773-16.153 1.773-7.543 0-14.455-1.182-20.774-3.506 15.403-47.95 26.106-104.844 32.148-170.72-11.414 63.197-26.303 117.845-44.786 164.022-6.674-4.886-12.48-11.544-17.337-19.976 18.404-37.39 32.7-74.545 42.81-111.423-6.081 17.218-14.967 37.942-26.658 62.212-6.437 13.318-13.309 26.832-20.576 40.543zM124.93 173.74c2.725-10.086 3.08-16.587 1.105-19.424-16.231 56.145-24.96 55.987-26.184-.355-7.622 90.66.75 97.279 25.079 19.779z"/>
        <path fill="#EFEFEF" d="M124.93 173.74c-24.328 77.5-32.701 70.92-25.079-19.779 1.224 56.382 9.953 56.5 26.184.355 1.975 2.837 1.62 9.298-1.105 19.424zM79.788 285.912c-.869-5.004-1.421-11.702-1.58-20.055-.355-18.163.988-43.182 4.029-75.057l4.7-48.58c-.909 38.06-1.027 68.083-.395 90.147.75 23.916 4.384 32.978 10.979 27.186 6.437-5.673 13.862-19.345 22.235-41.015 7.74-20.055 16.587-46.138 26.619-78.249-18.286 67.69-33.136 113.512-44.589 137.428-7.345 3.821-14.691 6.58-21.998 8.195zm-36.926-1.734a49.63 49.63 0 0 1-12.56-6.777c18.444-46.137 33.333-100.785 44.668-163.943-6.003 65.877-16.706 122.77-32.108 170.72zm-34.36-35.381c7.267-13.711 14.139-27.225 20.576-40.582 11.69-24.27 20.577-44.995 26.659-62.213-10.11 36.879-24.407 74.033-42.811 111.424-.198-.355-.395-.71-.632-1.064-1.343-2.443-2.646-4.965-3.792-7.565z"/>
        <path fill="#EFEFEF" d="M97.89 157.62c4.979 25.577 11.525 45.006 19.6 58.286 8.114 13.163 17.992 20.572 29.595 22.148-29.125-2.798-48.097-29.635-56.955-80.433-.902-4.887-.079-7.646 2.352-8.316 2.39-.67 4.194 2.09 5.409 8.316zm102.857 89.616c2.548 3.035-3.332 3.784-17.56 2.326-14.269-1.459-29.125-4.848-44.49-10.168 21.049 4.769 42.137 4.769 63.304 0-3.37 2.207-3.802 4.808-1.254 7.842z"/>
        <path fill="#E9E8E7" d="M132.934 193.246c-5.88-15.409-9.25-24.827-10.23-28.295-.55-1.97-1.451-5.715-2.745-11.192-.666-2.483-2.43-10.168-5.291-22.936-1.45-6.582-2.43-10.877-2.98-12.966-.548-2.05-1.724-4.532-3.488-7.448-1.803-2.916-3.685-4.847-5.684-5.833 2.705 1.143 5.096 2.956 7.095 5.518 1.372 1.773 2.548 4.295 3.45 7.566.156.591.98 4.177 2.43 10.798 2.9 12.808 4.664 20.453 5.292 22.975 1.293 5.478 2.234 9.183 2.744 11.193.94 3.468 3.449 10.6 7.565 21.399.823 3.468 1.45 6.542 1.842 9.221zm79.376 24.434c-.627.04-1.175.788-1.646 2.286a337.608 337.608 0 0 1-8.075-1.262 541.985 541.985 0 0 0-16.228-2.364c-4.39-.591-9.878-1.576-16.502-2.956-4.782-1.024-8.585-2.049-11.485-3.074-2.9-1.064-6.82-2.561-11.799-4.532 1.842.197 4.077.552 6.664 1.104 3.684.749 5.84 1.221 6.467 1.497.275.04.55.119.824.237.039 0 .078.04.117.04.04 0 .079.039.079.039.039 0 .039.039.078.039l.314.118c.156.079.274.118.43.158 1.334.355 4.352 1.024 9.095 2.05 6.663 1.418 12.151 2.403 16.541 2.994 4.9.63 10.31 1.419 16.228 2.325 5.018.75 7.958 1.183 8.898 1.3z"/>
        <path fill="#E5E5E5" d="M160.53 208.576l-.824-.236c-.627-.276-2.783-.749-6.467-1.498-2.627-.551-4.86-.906-6.664-1.103-.784-.079-1.529-.158-2.234-.197-2.195-.118-4.077-.04-5.723.236-1.647.237-4.39 1.458-8.232 3.665 2.038-2.443 3.058-5.911 2.98-10.443-.04-1.655-.197-3.626-.51-5.833-.392-2.68-1.02-5.753-1.843-9.221 1.216 4.453 3.058 8.315 5.527 11.625 2.195 2.956 4.587 5.084 7.134 6.385 4.743 2.285 7.762 3.625 9.055 4.059 1.333.354 2.43.67 3.332.946.823.315 2.313.827 4.469 1.615zm47.704 48.355c.353 2.995.94 4.847 1.646 5.557l-75.104-13.478c-12.896-2.246-22.97-8.67-30.182-19.192-7.213-10.483-15.719-31.449-25.518-62.976-1.882-7.684-3.332-14.305-4.273-19.862-1.019-6.147-1.529-11.507-1.529-16-.039-2.64.118-5.083.51-7.33.04-.197.078-.433.118-.63-.04.906-.079 1.852-.04 2.837 0 4.493.51 9.852 1.53 16 .94 5.557 2.351 12.177 4.272 19.862 9.8 31.527 18.305 52.493 25.518 62.976 7.251 10.482 17.325 16.867 30.222 19.152l72.83 13.084z"/>
        <path fill="#FFF" d="M209.057 237.975c.157 3.665.04 7.567-.431 11.705-.392 3.704-.588 5.832-.51 6.345.04.315.079.63.118.906l-72.87-13.084c-12.896-2.285-22.97-8.67-30.221-19.152-7.174-10.483-15.68-31.488-25.48-62.976-1.92-7.645-3.331-14.266-4.272-19.862-1.058-6.187-1.568-11.507-1.529-16-.039-.985 0-1.93.04-2.837 1.254-6.936 4.429-12.178 9.486-15.685 2.351-1.655 4.978-2.798 7.878-3.507 2.078-.513 3.92-.71 5.449-.552.274 0 .549 0 .823.04.196 0 .392.039.588.078.078 0 .157 0 .235.04 1.45.197 2.823.59 4.116 1.142 2 .986 3.88 2.917 5.684 5.833 1.764 2.877 2.94 5.36 3.488 7.448.55 2.05 1.53 6.345 2.98 12.966 2.861 12.808 4.625 20.453 5.291 22.936a567.547 567.547 0 0 0 2.744 11.192c.94 3.468 4.351 12.926 10.23 28.295.314 2.207.471 4.178.51 5.833.04 4.492-.94 7.96-2.979 10.443 3.842-2.246 6.586-3.468 8.232-3.665 1.646-.276 3.528-.355 5.723-.236.666.04 1.411.079 2.234.197a599.687 599.687 0 0 0 11.799 4.532c2.9 1.024 6.703 2.049 11.485 3.074 6.624 1.379 12.151 2.364 16.502 2.955 4.9.63 10.31 1.419 16.229 2.365 3.998.63 6.663 1.064 8.074 1.26-.392 1.223-.744 2.957-1.058 5.203a70.167 70.167 0 0 0-.588 12.768zM97.891 157.621c-1.254-6.227-3.058-9.025-5.41-8.355-2.469.67-3.253 3.429-2.351 8.315 8.858 50.798 27.83 77.636 56.955 80.434-11.603-1.577-21.481-8.946-29.595-22.148-8.036-13.241-14.582-32.67-19.6-58.246zm102.856 89.615c-2.509-2.995-2.117-5.635 1.215-7.881-21.128 4.808-42.256 4.808-63.305 0 15.405 5.32 30.222 8.709 44.49 10.167 14.268 1.498 20.109.71 17.6-2.286z"/>
        <path fill="#C9C6C5" d="M209.92 262.488c-.745-.71-1.294-2.562-1.647-5.557-.04-.276-.078-.591-.118-.906-.078-.513.118-2.64.51-6.345.47-4.099.588-8 .431-11.705.392.552.941 1.42 1.647 2.523.627.945 1.215 1.734 1.724 2.325.235 2.364.196 5.044-.117 8.078-.392 3.31-.55 5.281-.55 5.951l-.038 2.798c-.118 1.931-.392 2.877-.863 2.917-.078 0-.196.039-.235.118h-.196a.847.847 0 0 1-.549-.197z"/>
        <path fill="#EFCBA5" d="M212.467 242.823c-.549-.591-1.097-1.38-1.724-2.325-.706-1.104-1.255-1.97-1.647-2.523-.196-4.216 0-8.473.549-12.847.314-2.246.666-4.02 1.058-5.202.47-1.458 1.02-2.207 1.647-2.286 1.881-.118 3.88-.63 6.075-1.615 2.195-.986 3.96-1.261 5.292-.867 1.333.394 2.156 1.024 2.509 1.93 1.764 2.405 4.39 4.572 7.918 6.582 3.88 1.103 8.075 3.468 12.66 7.133 1.334 1.143 2.04 2.286 2.078 3.468v.394c-.039.276-.156.591-.313.985-.667 1.3-1.96 2.05-3.92 2.168.745 3.034-.823 4.729-4.704 5.044.706 3.35-1.215 4.808-5.684 4.453-.039 1.616-.392 2.759-1.097 3.429-.784.71-2.117.867-4.077.591a85.226 85.226 0 0 1-5.487-1.064c-2.313-.552-3.724-1.025-4.312-1.38-3.175-2.403-5.449-4.374-6.82-6.068z"/>
        <path fill="#E5E5E5" d="M145.083 102.303c1.05 1.646 1.906 3.487 2.645 5.485.7 2.586.039 4.545-1.945 5.877-.35.236-.739.47-1.166.667 1.866 12.812.466 26.839-4.2 42.002l-7.545.548c4.667-15.398 6.261-29.19 4.745-41.414-3.5-.04-7.195-.666-11.123-1.88-4.122-1.255-8.4-3.527-12.794-6.818-4.394-3.252-8.75-6.583-13.144-9.952-.934-.745-1.478-1.411-1.556-2.038.194.235.467.47.778.705 4.355 3.37 8.71 6.7 13.105 9.952s8.673 5.525 12.795 6.818c3.928 1.215 7.622 1.88 11.122 1.92h.817a127.687 127.687 0 0 1-1.634-4.232c.74 1.019 1.517 2.43 2.256 4.232.155.43.311.862.467 1.332 1.555 12.264.038 25.546-4.512 39.887l5.873-.236c4.666-16.26 5.91-29.777 3.733-40.513a8.79 8.79 0 0 0-.35-1.528c-.467-1.606-1.089-3.056-1.906-4.31 1.128 1.254 1.906 2.625 2.334 4.114.35-.196.66-.392.972-.588 1.983-1.332 2.644-3.29 1.944-5.877-.427-1.489-1.05-2.86-1.71-4.153zm-3.889 25.899a2.27 2.27 0 0 1-.233-1.254c.039-.47.233-.862.467-1.175.272-.314.583-.47.933-.431.311.039.583.235.778.587.194.353.233.784.194 1.254-.039.47-.194.862-.466 1.175-.273.314-.584.47-.895.431-.31 0-.583-.195-.778-.587zm.428 7.718c.311.04.584.236.74.588.194.353.271.784.232 1.254-.038.47-.233.862-.466 1.175-.272.314-.545.431-.856.392-.31-.039-.583-.235-.778-.587-.194-.353-.272-.784-.233-1.254.039-.47.233-.862.467-1.176.272-.274.583-.43.894-.392zm-1.166 11.716c.155.352.155.783.038 1.214-.116.47-.35.862-.622 1.176-.31.313-.66.43-.972.392-.311-.04-.583-.236-.739-.588-.155-.353-.155-.784-.039-1.254.117-.47.35-.823.622-1.136.35-.314.662-.431.973-.392.35.04.583.235.739.588z"/>
        <path fill="#FFF" d="M99.039 94.82c-.35-2.234 4.861-3.645 15.672-4.31 14.661-.902 24.772 3.016 30.333 11.793.7 1.293 1.284 2.664 1.867 4.153.7 2.586.039 4.545-1.944 5.877a4.951 4.951 0 0 1-.973.588c-.427-1.489-1.205-2.86-2.333-4.114a14.94 14.94 0 0 1 1.906 4.31c.116.47.233.98.35 1.528 2.177 10.736.933 24.214-3.734 40.513l-5.872.236c4.55-14.34 6.028-27.623 4.511-39.887-.155-.47-.35-.901-.466-1.332-.74-1.802-1.517-3.213-2.256-4.232.35.98.894 2.39 1.633 4.232h-.816c-3.5-.04-7.195-.666-11.123-1.92-4.122-1.293-8.4-3.566-12.794-6.818a608.553 608.553 0 0 1-13.106-9.952 3.83 3.83 0 0 1-.855-.666zm41.417 52.816c-.156-.353-.39-.549-.74-.588-.31-.04-.622.078-.972.392-.31.313-.505.705-.622 1.136-.116.47-.116.901.04 1.254.155.352.388.588.738.588.311.039.661-.079.972-.392.311-.314.545-.706.622-1.176.117-.43.117-.862-.038-1.214zm1.166-11.716c-.31-.039-.622.118-.894.392-.272.314-.428.706-.467 1.176-.039.47.039.9.233 1.254.195.352.467.548.778.587.311.04.622-.078.856-.392.272-.313.428-.705.466-1.175.04-.47-.038-.901-.233-1.254-.155-.352-.428-.548-.739-.588zm-.428-7.718c.195.352.467.587.778.627.311.039.622-.118.895-.431.272-.314.427-.745.466-1.176.04-.47 0-.9-.194-1.254-.195-.391-.467-.587-.778-.587-.311-.04-.622.117-.933.43-.272.314-.428.706-.467 1.176-.039.431.039.862.233 1.215z"/>
        <path fill="#EFCBA5" d="M144.638 105.367c-4.528-5.026-6.93-10.562-7.284-16.57-13.07-4.358-20.039-16.098-20.905-35.258-.079-3.063 1.771-5.222 5.59-6.479 3.386-1.139 7.56-1.335 12.52-.628 4.882.667 9.016 2.002 12.362 3.966 3.662 2.238 5.315 4.75 5 7.538-3.464 9.266-5.866 17.669-7.283 25.208-1.654 8.795-1.693 15.548-.197 20.299.118.707.236 1.335.197 1.924z"/>
        <path fill="#FFDAAE" d="M116.41 53.5c.866 19.16 7.834 30.9 20.905 35.258.354 6.008 2.795 11.544 7.283 16.57-.078 1.256-.708 2.277-1.89 3.062-1.535 1.021-3.818 1.531-6.81 1.492-2.953-.04-6.103-.589-9.45-1.61-3.503-1.06-7.086-2.984-10.826-5.693-3.7-2.71-6.653-4.986-8.819-6.832-2.205-1.806-3.622-2.63-4.33-2.434-.71.157.826-2.042 4.566-6.675 3.74-4.633 6.181-9.934 7.323-15.902 1.22-5.929 1.89-11.7 2.047-17.237zM130.868 40.766c5.217-.196 11.62-.588 19.091-1.138 10.159-.745 17.55-.784 22.254-.078h.08c-.396 2.668-.83 5.375-1.345 8.083-2.688 3.688-3.952 6.905-3.755 9.612a39.91 39.91 0 0 1-3.834 13.537c-2.45-1.844-8.656-2.04-18.578-.51-8.024-2.04-13.28-7.455-15.77-16.244-.357-3.963.236-8.357 1.857-13.262zm-8.143.157h.633c-.198 0-.435.04-.633 0z"/>
        <path fill="#EFCBA5" d="M172.292 39.55c.712.078 1.344.118 1.977.078a212.269 212.269 0 0 1-.791 8.358c-2.411 3.688-3.478 6.866-3.123 9.613-.158 4.63-1.067 9.063-2.806 13.3-.711 1.138-1.74 1.57-3.123 1.335a2.986 2.986 0 0 0-1.027-1.413c2.095-4.277 3.36-8.789 3.834-13.536-.198-2.708 1.067-5.925 3.755-9.613.474-2.747.909-5.454 1.304-8.122zM111.5 43.67c2.885-1.57 6.245-2.472 10-2.747h1.225c.04.196.08.432.119.628l.395 4.473c-.079 3.296-.83 6.67-2.332 10.201-3.636-.117-6.166-1.294-7.59-3.57-1.185-1.844-1.817-4.865-1.817-8.985z"/>
        <path fill="#434343" d="M120.907 56.265c1.502-3.492 2.293-6.906 2.332-10.202l-.395-4.473c-.04-.196-.08-.431-.119-.628h.633l6.047-.156c.475 0 .95-.04 1.463-.04-1.581 4.905-2.214 9.3-1.858 13.262 2.45 8.789 7.708 14.204 15.771 16.244 9.961-1.53 16.167-1.334 18.578.51.514.392.87.863 1.028 1.412 1.383.236 2.411-.196 3.122-1.334-.87 2.12-1.976 4.199-3.24 6.239-3.835 6.042-6.365 10.24-7.63 12.556-1.264 2.275-3.201 3.217-5.85 2.746-.553-.078-1.146-.235-1.778-.432-.158-.039-.316-.117-.475-.156a37.605 37.605 0 0 1-2.055-.824c-2.253-1.02-4.98-2.512-8.222-4.513-9.802-4.943-15.455-12.79-16.996-23.541l-.356-6.67z"/>
        <path fill="#EFEFEF" d="M123.358 40.923H121.5c-3.202-.078-6.482-.196-9.882-.314-.355 0-.711-.039-1.067-.039-7.747-.235-13.162 1.727-16.246 5.964-3.083 4.238-2.687 11.379 1.265 21.384 3.953 10.005 3.36 17.146-1.778 21.344a288.686 288.686 0 0 1-14.784 11.457c-6.442 4.355-10.711 8.318-12.806 11.928-5.178-10.476-3.716-17.5 4.348-21.148 8.063-3.65 12.648-7.455 13.834-11.418 1.146-4.002.91-9.848-.79-17.617-1.66-7.769-2.016-12.87-1.068-15.224.949-2.354 1.937-4.276 2.965-5.767 1.028-1.491 2.767-2.55 5.178-3.218 6.482-1.844 13.558-2.354 21.305-1.57.91.08 1.858.197 2.806.315.593.078 1.147.157 1.74.274.87.079 1.778.157 2.687.236 8.064.549 17.116.235 27.076-.981.83-.079 5.139-.667 12.926-1.727 4.862-.667 8.775-1.098 11.779-1.255.83-.04 1.541-.196 2.095-.471a3.476 3.476 0 0 0 1.502-1.295c.632-1.138.553-2.786-.158-4.944.158-.117.276-.235.395-.353a7.482 7.482 0 0 1 3.755 3.022c.949 1.49 1.344 3.06 1.225 4.786-.158 1.766-.87 3.14-2.095 4.12-.948.746-2.095 1.138-3.478 1.256-.632.039-1.265 0-1.976-.079h-.08c-4.703-.706-12.095-.667-22.253.079-7.51.549-13.874.941-19.092 1.138-.513 0-.988.039-1.462.039l-6.008.078z"/>
        <path fill="#E5E5E5" d="M121.5 40.923c-3.755.275-7.075 1.177-10 2.747-2.925 1.57-5.455 3.806-7.51 6.71-4.111 5.767-3.676 12.83 1.383 21.265 5.02 8.397 4.901 14.91-.277 19.5-2.41 2.08-4.427 3.453-6.126 4.081-1.068.392-3.163.746-6.364 1.099-2.332.235-5.1.98-8.38 2.197-2.095.785-3.834 1.53-5.218 2.197a293.616 293.616 0 0 0 14.784-11.457c5.099-4.237 5.691-11.34 1.778-21.344-3.952-10.006-4.348-17.146-1.265-21.384 3.084-4.237 8.499-6.239 16.246-5.964.356 0 .712.04 1.067.04 3.4.117 6.68.235 9.882.313z"/>
        <path fill="#FFF" d="M115.097 20.952c6.245 2.472 14.546 4.198 24.823 5.062 10.237.863 18.775.706 25.613-.55 1.779-.353 3.28-.745 4.625-1.216-1.502.745-3.558 1.373-6.127 1.844-6.285 1.177-14.19 1.373-23.677.51-9.526-.824-17.194-2.393-22.965-4.669-.87-.353-1.62-.667-2.292-.98zM90.669 38.255c7.036-2.315 12.45-8.279 16.246-17.891 1.264 2.08 3.557 3.766 6.956 5.1 6.443 2.59 14.981 4.355 25.614 5.258 10.514.902 19.329.706 26.364-.589 3.953-.745 6.799-1.844 8.538-3.335.751 2.197.79 3.845.158 4.944-.316.589-.83 1.02-1.502 1.295-.593.235-1.265.392-2.095.47-2.964.197-6.877.628-11.779 1.256-7.787 1.06-12.095 1.648-12.925 1.727-10 1.216-19.013 1.53-27.076.98-.91-.078-1.818-.156-2.688-.235-.593-.078-1.146-.196-1.74-.275-.948-.117-1.857-.235-2.806-.313-7.668-.746-14.783-.236-21.265 1.608zm22.016-27.74c2.372-2.472 5.416-4.551 9.052-6.238 6.68-3.14 14.072-4.395 22.135-3.767 8.222.628 15.1 3.021 20.594 7.259 2.806 2.158 5.02 4.63 6.6 7.415 1.542 3.022-.908 5.14-7.351 6.317-6.166 1.177-13.835 1.334-23.084.55-9.289-.785-16.76-2.315-22.372-4.59-5.613-2.277-7.47-4.592-5.574-6.946z"/>
        <path fill="#9A9A9B" d="M174.98 20.599c1.542 1.844 1.581 3.531.119 5.14-.08.118-.198.196-.277.314-.119.117-.277.235-.395.353-1.74 1.49-4.585 2.59-8.538 3.335-7.036 1.295-15.85 1.49-26.365.589-10.593-.903-19.13-2.669-25.613-5.258-3.4-1.334-5.732-3.021-6.957-5.1a13.596 13.596 0 0 1-.553-1.06c-.79-1.884-.396-3.453 1.185-4.67.04.08.08.158.08.275 1.027 2.511 3.478 4.513 7.312 5.964.04 0 .08.04.119.04.672.313 1.423.666 2.253.98 5.81 2.315 13.439 3.885 22.965 4.67 9.486.823 17.392.666 23.677-.51 2.608-.471 4.624-1.1 6.126-1.845 1.977-.706 3.479-1.608 4.427-2.668.198-.157.316-.353.435-.549z"/>
        <path fill="#BBBABE" d="M107.547 14.635c-.87-2.59 1.146-4.237 6.048-5.061a9.79 9.79 0 0 0-.91.902c-1.897 2.393-.04 4.67 5.613 6.906 5.653 2.275 13.084 3.805 22.373 4.59 9.21.785 16.917.628 23.083-.55 6.443-1.176 8.894-3.295 7.352-6.316-.118-.196-.237-.432-.395-.628 4.032 2.394 5.455 4.552 4.27 6.513a2.966 2.966 0 0 1-.436.55c-.948 1.059-2.45 1.922-4.427 2.668a27.91 27.91 0 0 1-4.624 1.216c-6.839 1.256-15.376 1.452-25.614.55-10.277-.903-18.538-2.59-24.823-5.062-.04 0-.079-.04-.118-.04-3.874-1.49-6.325-3.491-7.313-5.963a.723.723 0 0 0-.079-.275z"/>
        <g>
            <path fill="#434343" d="M294.733 180.866c4.847 2.968 9.616 3.007 14.385.08-2.775.632-5.12.87-7.114.711-1.76-.158-2.893-.633-3.401-1.384-.508-.752-.274-1.543.703-2.374 1.095-.95 2.815-1.702 5.239-2.374 3.596-1.543 4.378-4.432 2.306-8.705 3.049-.514 5.394-1.86 7.114-4.036.157-.751-.078-1.385-.703-1.978 0-.04-.782-.633-2.307-1.82-1.094-.87-2.032-1.82-2.814-2.928-.9-5.895-1.095-9.694-.547-11.395 0-.04-.079-1.701-.352-4.946-.235-3.047 0-5.223.664-6.489 1.408-2.73 2.541-8.23 3.323-16.539.47-4.945.782-8.032.9-9.179a58.682 58.682 0 0 1 2.11-9.456c2.854-3.166 5.707-4.986 8.6-5.5a4.8 4.8 0 0 1 1.29-.158c2.971-.119 5.668 1.345 8.014 4.392 2.775 3.64 4.847 9.14 6.137 16.499.43 2.65.782 5.46 1.016 8.388 0 .079.04.198.04.277-2.541 27.617-5.395 46.767-8.64 57.45-3.244 10.564-7.779 17.963-13.603 22.118-3.088 2.176-12.001 7.438-26.778 15.747-15.089 8.547-25.487 14.165-31.194 16.855-2.306-2.294-5.395-7.042-9.186-14.283a70.03 70.03 0 0 1-2.737-10.406c3.48-1.74 6.528-3.205 9.108-4.352 2.815-1.266 4.613-2.097 5.434-2.493 8.053-3.917 15.363-8.27 21.93-13.017 3.557-2.572 7.232-5.46 11.063-8.705z"/>
            <path fill="#353535" d="M305.99 150.756c.43 1.978 1.135 3.72 2.19 5.223a13.25 13.25 0 0 0 2.815 2.928c1.524 1.187 2.306 1.78 2.306 1.82.625.593.86 1.266.704 1.978-1.681 2.216-4.066 3.561-7.115 4.036 2.072 4.273 1.29 7.201-2.306 8.705-2.424.633-4.183 1.424-5.239 2.374-.977.87-1.211 1.661-.703 2.373.508.752 1.642 1.227 3.4 1.385 1.955.198 4.34-.04 7.115-.712-4.769 2.928-9.577 2.888-14.385-.079-.235-.158-.47-.317-.743-.435-1.446-3.64.43-5.42 5.63-5.342-1.564-6.449.703-10.683 6.88-12.7-1.447-2.928-2.268-4.986-2.503-6.212-.547-2.414.118-4.234 1.955-5.342zm-51.013 80.003c-2.032-3.481-3.674-7.122-5.003-10.92 3.791 7.201 6.84 11.95 9.186 14.283 5.707-2.69 16.105-8.308 31.195-16.855 14.776-8.309 23.728-13.571 26.777-15.747 5.785-4.155 10.32-11.554 13.603-22.118 3.206-10.683 6.099-29.833 8.64-57.45.39 5.856.39 12.344-.04 19.466-2.189 17.093-4.925 30.98-8.13 41.664-3.245 10.564-7.78 17.923-13.604 22.078-3.088 2.216-12.001 7.478-26.816 15.787-15.09 8.546-25.488 14.165-31.195 16.855a74.366 74.366 0 0 1-4.613-7.043z"/>
            <path fill="#EEEEF3" d="M249.622 228.623a43.893 43.893 0 0 1-2.737-3.324c-2.97-4.075-5.238-8.863-6.801-14.283-.04-.119-.079-.277-.118-.396l-.156-1.503 7.075-1.9c.118.752.274 1.504.391 2.216a70.03 70.03 0 0 0 2.737 10.406c1.329 3.798 2.97 7.439 5.003 10.92l-3.205.119-2.19-2.255z"/>
            <path fill="#FFDAAE" d="M246.885 225.3c-4.612-.16-6.958.237-7.036 1.186-3.987-1.187-6.763-2.453-8.326-3.798-1.603-1.345-3.167-3.126-4.77-5.302-.39-.475-1.094-.673-2.071-.554-.977.119-1.798.435-2.541.99-1.251.91-2.541 2.254-3.948 4.074-.938 1.148-1.642 1.94-2.111 2.374-.9.713-1.72.99-2.541.792-.821-.238-1.407-.633-1.837-1.227-.352-.475-.587-.989-.587-1.543-.039-.316-.078-.554-.039-.672 1.33-3.561 2.776-6.212 4.378-7.993 1.72-1.939 4.105-3.403 7.115-4.431 2.893-.673 5.55-.87 7.935-.554 2.15.277 5.317.95 9.46 1.978.04.158.079.277.118.396 1.563 5.42 3.83 10.208 6.801 14.283z"/>
            <path fill="#494949" d="M247.276 209.433c-.117-.752-.234-1.503-.39-2.216 4.3-2.532 8.639-4.866 13.017-7.003 2.502-1.187 5.98-2.81 10.398-4.787 3.83-1.78 7.31-3.64 10.437-5.58 4.066-2.492 8.483-5.657 13.252-9.456.235.159.47.317.743.436a196.66 196.66 0 0 1-11.024 8.704c-6.567 4.748-13.877 9.06-21.93 13.018-.82.395-2.619 1.226-5.434 2.492-2.54 1.187-5.59 2.651-9.069 4.392zm60.904-53.454c-1.055-1.504-1.76-3.245-2.19-5.223-.468-2.295-.43-4.273.08-5.974 0-.04-.08-1.702-.314-4.946-.195-3.047 0-5.223.665-6.49 1.407-2.73 2.54-8.229 3.323-16.498.469-4.946.781-8.032.938-9.18.39-3.165.899-5.5 1.485-7.003.704-.95 1.408-1.82 2.15-2.611a57.756 57.756 0 0 0-2.11 9.456c-.157 1.187-.47 4.234-.9 9.18-.782 8.308-1.876 13.808-3.322 16.538-.665 1.266-.86 3.442-.665 6.49.235 3.244.352 4.905.352 4.945-.587 1.622-.391 5.42.508 11.316z"/>
            <path fill="#EFCBA5" d="M246.885 225.3a43.893 43.893 0 0 0 2.737 3.323c-2.893-.119-5.2-.08-6.88.079-.235-.238-.821-.712-1.642-1.345l-1.212-.87c.04-.95 2.385-1.346 6.997-1.188z"/>
        </g>
        <g>
            <path fill="#434343" d="M363.256 264.97c-6.917-16.463-11.819-36.945-14.704-61.405-.475-1.418-.91-2.876-1.384-4.372 2.965 27.532 8.696 51.244 17.076 71.135.79 6.302-.632 10.438-4.308 12.446-7.432-3.269-11.78-12.683-13.005-28.28-1.304-16.07-4.348-33.953-9.21-53.726-4.862-19.733-10.83-39.821-17.906-60.342l-.475-1.182c-2.134-5.16-3.794-10.792-4.94-16.898-.712-3.78-1.186-7.326-1.384-10.634-.158-2.954-.08-5.16.198-6.539 1.067-5.12 2.964-8.705 5.77-10.674 2.53-1.812 5.1-2.954 7.63-3.387 3.478-.473 8.024-1.143 13.755-1.97 4.427-.551 7.827-.827 10.199-.748 5.77.118 10.158.354 13.083.748.989.158 4.27.552 9.764 1.221 5.81.827 10.751 1.97 14.862 3.348 5.495 2.167 10.475 5.318 14.902 9.414 5.495 5.12 9.606 13.077 12.333 23.948.712 2.915 2.965 15.558 6.76 37.97 1.462 8.744 3.636 19.458 6.522 32.14a980.78 980.78 0 0 0 7.233 29.424c.79 2.915 1.62 5.83 2.53 8.705-3.755 7.68-7.985 14.73-12.728 21.19-10.752 14.692-23.598 25.603-38.54 32.771a98.438 98.438 0 0 1-11.147 4.53 216.855 216.855 0 0 1-2.016-4.136c-3.083-6.38-6.68-14.613-10.87-24.696zm-3.913-22.49c-.475.158-.83.473-.988 1.024-.198.512-.198 1.103 0 1.773.197.63.513 1.142.988 1.497.474.393.948.472 1.423.354.474-.118.79-.473.988-1.024.198-.512.198-1.103 0-1.733-.198-.67-.514-1.142-.988-1.497-.475-.394-.949-.512-1.423-.394zm-8.617-28.241c.079.67.316 1.182.711 1.654.395.394.83.591 1.344.512.474-.039.87-.315 1.186-.787.277-.512.356-1.103.277-1.773-.08-.67-.317-1.22-.712-1.654-.395-.394-.83-.591-1.304-.512-.475.079-.87.354-1.186.827-.277.473-.395 1.063-.316 1.733z"/>
            <path fill="#353535" d="M438.478 235.351a219.39 219.39 0 0 1-2.53-8.705 952.034 952.034 0 0 1-7.234-29.423c-2.885-12.722-5.06-23.436-6.522-32.14-3.794-22.412-6.047-35.056-6.759-37.97-2.688-10.832-6.799-18.828-12.333-23.949a46.754 46.754 0 0 0-14.902-9.413c1.186.394 3.004.866 5.534 1.536 2.253.59 3.953 1.103 5.1 1.497a46.708 46.708 0 0 1 15.93 9.847c5.493 5.12 9.604 13.116 12.332 23.948.711 2.914 2.964 15.558 6.76 37.93 1.462 8.745 3.636 19.458 6.521 32.141A1438.485 1438.485 0 0 0 445 219.99a169.311 169.311 0 0 1-6.522 15.361z"/>
            <path fill="#9EA5AD" d="M350.726 214.239c-.08-.67.04-1.26.316-1.772.277-.473.672-.749 1.186-.828.474-.039.909.119 1.304.512.395.434.633.985.712 1.655.079.67 0 1.22-.277 1.772-.316.473-.712.749-1.186.788-.474.079-.949-.118-1.344-.512-.395-.433-.632-.945-.711-1.615zm8.617 28.241c.474-.118.948 0 1.383.355.435.354.79.827.988 1.497.198.67.198 1.22 0 1.733-.197.551-.513.866-.988 1.024-.474.157-.948.04-1.423-.355-.474-.354-.79-.866-.988-1.497-.198-.67-.198-1.26 0-1.772a1.593 1.593 0 0 1 1.028-.985z"/>
            <path fill="#353535" d="M364.244 270.328c-8.42-19.891-14.111-43.603-17.076-71.135.474 1.496.91 2.954 1.384 4.372 2.885 24.5 7.787 44.981 14.704 61.406.435 1.93.79 3.742.988 5.357z"/>
            <path fill="#494949" d="M326.574 91.151c-2.53.433-5.1 1.576-7.629 3.387-2.806 1.97-4.704 5.515-5.771 10.675-.277 1.418-.356 3.584-.198 6.538.198 3.309.672 6.854 1.384 10.635 1.186 6.105 2.806 11.738 4.94 16.897l.475 1.182c7.115 20.521 13.084 40.649 17.906 60.343 4.862 19.733 7.906 37.655 9.21 53.725 1.226 15.598 5.574 25.012 13.005 28.28-8.617-2.638-13.597-12.013-14.862-28.044-1.265-16.03-4.348-33.952-9.17-53.686-4.863-19.733-10.832-39.86-17.947-60.382l-.474-1.181c-2.134-5.16-3.795-10.793-4.94-16.898-.712-3.781-1.187-7.287-1.384-10.635-.159-2.954-.08-5.16.197-6.538 1.067-5.12 2.965-8.665 5.771-10.635 2.767-2.009 5.534-3.15 8.34-3.505a3.834 3.834 0 0 1 1.147-.158z"/>
        </g>
        <g>
            <path fill="#434343" d="M339.32 91.875c-6.8 2.032-10.88 6.877-12.28 14.614-1.48 8.166-1.84 14.496-1 18.95.84 4.493 3.2 13.793 7.12 27.976 1.64 5.9 3.72 12.543 6.32 19.927 1.32 3.712 2.48 6.8 3.44 9.3 1.72 4.806 3.24 9.885 4.64 15.2.16.585.28 1.171.4 1.757l1.6 5.744c-.04 1.016-.2 1.876-.44 2.579-.16-.547-.32-1.094-.48-1.68-2.2-6.877-5.68-15.903-10.4-27.078-6.68-15.473-12-27.976-16-37.51-2.28-5.587-3.88-10.159-4.76-13.675l-1.12-4.728 5.88-6.369-6-6.134c.84-3.908 1.96-7.19 3.4-9.808 1.68-3.086 3.88-5.587 6.64-7.54.96-.704 1.84-1.212 2.6-1.603 1.12-.586 2.32-1.016 3.56-1.328 2.96-.743 5.68-.39 8.08 1.016-.32.117-.76.273-1.2.39z"/>
            <path fill="#353535" d="M339.32 91.875c-6.2 1.993-9.96 6.8-11.32 14.497-1.48 8.166-1.84 14.496-1 18.95.84 4.493 3.2 13.832 7.12 27.976 1.64 5.9 3.76 12.542 6.36 19.927 1.32 3.712 2.44 6.838 3.4 9.3 1.72 4.805 3.28 9.885 4.64 15.199.84 3.087 1.2 5.626 1.12 7.619l-1.6-5.744c-.12-.547-.28-1.133-.4-1.758-1.4-5.314-2.92-10.393-4.64-15.2-.96-2.5-2.12-5.626-3.44-9.299-2.6-7.384-4.72-14.027-6.32-19.927-3.92-14.183-6.28-23.483-7.12-27.976-.84-4.454-.48-10.784 1-18.95 1.36-7.737 5.44-12.582 12.2-14.614z"/>
        </g>
        <g>
            <path fill="#434343" d="M352.68 89.257c.96-.157 1.88-.275 2.84-.393 8.24-.943 15 0 20.2 2.79h-.04c.08.039.2.078.24.117.48.236.84.433 1.04.59.36.235.56.353.6.353 1.24.904 2.32 2.357 3.28 4.4 1.44 3.104 2.44 7.543 3 13.318.04.236.04 1.493.08 3.732.12 2.279.4 3.615.88 4.047l-9.76 4.557 6.64 5.225c-1.72 2.436-3.32 5.264-4.84 8.486-.44.982-2.88 5.617-7.24 13.907-3.96 7.543-6.92 13.121-8.8 16.657-3.04 5.696-5.56 12.257-7.56 19.643-2 7.385-3.48 14.81-4.4 22.196-.96-9.153-.92-17.6.2-25.26 1-7.15 2.72-13.711 5.12-19.722 1.72-4.282 3.56-9.075 5.56-14.34 1.84-5.028 3.08-8.25 3.64-9.624 2.08-5.186 3.4-8.565 3.96-10.215a62.974 62.974 0 0 0 1.96-7.425c1.12-5.421 1.8-9.35 2.04-11.746.2-2.436.16-5.736-.16-9.86-.32-4.086-.84-6.836-1.56-8.211-3.52-1.415-8.44-2.436-14.76-3.104-.76 0-1.48-.04-2.16-.118z"/>
            <path fill="#353535" d="M348.8 208.921a168.75 168.75 0 0 1 4.4-22.196c2-7.425 4.52-13.986 7.56-19.643 1.92-3.536 4.84-9.075 8.8-16.657 4.36-8.329 6.8-12.964 7.24-13.907 1.52-3.222 3.12-6.05 4.84-8.486l-6.64-5.225 9.76-4.557c-.48-.432-.76-1.768-.88-4.046-.04-2.24-.04-3.497-.08-3.733-.56-5.775-1.56-10.214-3-13.317-.96-2.043-2.08-3.497-3.28-4.4-.04 0-.24-.118-.6-.354-.2-.157-.52-.354-1.04-.59l-.24-.117h.04c-5.24-2.79-12-3.732-20.2-2.79-.96.08-1.88.197-2.84.393-.08 0-.12 0-.2-.039 10.04-1.728 18.16-.903 24.28 2.475 1.32.59 2.44 1.532 3.32 2.868.56.825 1.16 1.925 1.76 3.182 1.44 3.025 2.4 7.347 2.92 12.964.04.236.04 1.415.08 3.615.08 2.2.36 3.496.84 3.928l-9.52 4.479 6.48 5.068c-1.68 2.357-3.24 5.107-4.72 8.25-.4.943-2.76 5.46-7.04 13.593-3.88 7.385-6.72 12.767-8.56 16.225-3 5.539-5.48 11.942-7.4 19.171-1.96 7.229-3.96 15.164-6.08 23.846z"/>
        </g>
        <g>
            <path fill="#FFF" d="M347.722 189.756c-1.11-5.641-2.34-13.885-3.65-24.733-1.427-12.702-2.459-21.853-3.093-27.494a309.644 309.644 0 0 0 3.252-11.203c.952-3.63 2.857-8.442 5.713-14.398 3.253-1.223 6.228-3.077 8.886-5.562 2.658-2.485 4.403-4.93 5.236-7.337.833-2.406.873-4.536.08-6.35-.754-1.815-3.452-4.695-8.093-8.6 6.466.315 11.623 3.55 15.51 9.704.794 4.457.477 8.323-.991 11.597a16.21 16.21 0 0 1-1.706 2.88c-.952 1.42-2.737 3.55-5.236 6.35a228.417 228.417 0 0 1-8.132 8.402l-5.594-11.084 5.356 13.175c4.403-3.116 9.52-9.31 15.312-18.54v1.184c0 .591-.04 1.144-.08 1.656-.198 2.407-.872 6.351-2.023 11.795-.555 2.643-1.19 5.128-1.943 7.455-.556 1.618-1.865 5.05-3.928 10.256-.555 1.381-1.785 4.576-3.61 9.665-1.943 5.325-3.808 10.098-5.514 14.398-2.42 6.035-4.086 12.622-5.077 19.802a78.578 78.578 0 0 0-.675 6.982z"/>
            <path fill="#FFF" d="M339.788 143.012a925.846 925.846 0 0 0 3.452 27.77c1.428 10.374 2.737 19.013 3.967 25.837a168.991 168.991 0 0 0-4.285-14.121c-.952-2.525-2.062-5.641-3.372-9.389-2.578-7.416-4.68-14.121-6.307-20.117-3.888-14.32-6.228-23.747-7.061-28.244-.635-3.55-.595-8.205.198-14.043-2.063-4.812-2.697-8.639-1.904-11.4.793-2.998 2.737-5.443 5.752-7.337a67.883 67.883 0 0 0 7.974-5.72c-7.855 8.284-8.41 16.765-1.666 25.404.158 5.68.436 10.098.833 13.254.357 2.367 1.15 8.402 2.42 18.106z"/>
            <path fill="#EEEEF3" d="M336.575 111.652l-6.109 9.112a126.37 126.37 0 0 0-3.768-9.23c.04.157.04.276.079.394l.08.75 3.688 11.123 6.03-12.15z"/>
            <path fill="#EFEFEF" d="M370.612 106.563c-5.792 9.23-10.91 15.384-15.313 18.54l-5.355-13.175 5.593 11.084c2.856-2.8 5.554-5.6 8.132-8.402 2.54-2.8 4.285-4.891 5.237-6.35.674-.908 1.23-1.894 1.706-2.88v1.183zm-29.633 30.966c.634 5.64 1.666 14.792 3.094 27.494 1.309 10.848 2.539 19.092 3.65 24.733a92.537 92.537 0 0 0-.12 8.165l-.04-.04c-.118-.394-.198-.828-.317-1.262-1.23-6.863-2.539-15.463-3.967-25.837-1.348-9.704-2.46-18.934-3.45-27.77l1.15-5.483zm-4.404-25.877l-5.99 12.189-3.69-11.124-.078-.75c0-.118-.04-.276-.08-.394 1.23 2.682 2.46 5.76 3.769 9.23l6.07-9.151z"/>
            <path fill="#FFDAAE" d="M336.575 111.652c-6.744-8.639-6.188-17.12 1.666-25.404l7.419-.71c5.276-.591 8.766-1.065 10.433-1.46 4.601 3.906 7.299 6.786 8.092 8.6.754 1.815.714 3.905-.08 6.351-.832 2.406-2.578 4.852-5.236 7.337-2.657 2.485-5.633 4.34-8.886 5.562-5.117 8.718-8.647 16.252-10.552 22.563l-2.856-22.84z"/>
            <path fill="#EFCBA5" d="M336.575 111.652l2.817 22.84c1.904-6.312 5.434-13.846 10.552-22.564-2.856 5.956-4.76 10.769-5.713 14.398a309.644 309.644 0 0 1-3.252 11.203l-1.15 5.483c-1.31-9.743-2.103-15.779-2.381-18.106-.476-3.116-.754-7.574-.873-13.254z"/>
        </g>
        <g>
            <path fill="#353535" d="M407.666 104.473c-5.584 2.088-9.86 5.555-12.79 10.362-3.09 5.123-4.713 10.875-4.832 17.298-.198 7.604.317 15.72 1.544 24.428.238 1.576.594 5.556 1.11 11.978.514 6.383.87 10.993 1.108 13.83.198 2.798.158 6.62-.198 11.466l1.98 6.422c4.396 1.655 8.158 3.94 11.246 6.817-2.811-.355-5.623-.158-8.395.551 4.475 1.97 7.722 4.965 9.742 8.905-4.158-2.167-8.079-3.191-11.682-3.113-.357 1.025-.673 2.01-.99 2.956-4.356 6.895-8.079 12.569-11.088 16.942-3.525 5.083-8.87 11.387-16.078 18.913-7.207 7.486-12.355 12.726-15.483 15.642a708.685 708.685 0 0 1-9.702 8.51c-3.248 2.798-5.148 4.532-5.624 5.123-.792-.315-1.386-.473-1.821-.394.515-.591 2.376-2.285 5.663-5.083a335.52 335.52 0 0 0 9.622-8.51c3.168-2.916 8.316-8.157 15.524-15.682 7.207-7.526 12.592-13.83 16.077-18.913 3.208-4.61 7.049-10.441 11.563-17.533.198-.63.436-1.261.634-1.892-1.505-1.024-1.584-3.073-.317-6.146-.91-.985-1.425-2.089-1.465-3.389-.08-1.103.238-2.56.95-4.334a49.483 49.483 0 0 0-.712-2.955c-.396-1.458-.674-2.443-.792-3.034.316-4.807.356-8.629.198-11.426-.238-2.837-.594-7.408-1.11-13.79-.514-6.423-.87-10.403-1.108-11.979-1.228-8.668-1.742-16.824-1.584-24.429.119-6.383 1.742-12.135 4.831-17.257 2.93-4.847 6.574-7.999 10.85-9.496 1.03-.434 2.1-.67 3.129-.788zM360.74 306.917c1.07-1.222.634-3.35-1.307-6.304-.475-.67-.99-1.38-1.544-2.05 5.544-4.294 13.266-10.874 23.087-19.74 8.672-7.722 14.216-12.844 16.671-15.366 4.119-4.176 8.593-9.023 13.504-14.539 1.861-2.088 5.148-6.974 9.9-14.697 2.138-4.767 3.762-8.707 4.91-11.82.871-2.522 1.584-6.501 2.178-11.86l.594-7.29c0-1.26-.04-2.56-.079-3.86-.04-.552-.08-3.94-.08-10.127-.039-5.989-.078-9.771-.197-11.347-.198-2.995-.475-7.092-.753-12.215-.277-5.437-.435-8.392-.475-8.865-3.01-23.72-7.365-40.504-13.068-50.355 1.782 1.458 3.485 3.625 5.188 6.58 5.702 9.811 10.058 26.596 13.068 50.355.04.473.237 3.428.475 8.865.277 5.162.515 9.26.752 12.294.08 1.576.159 5.319.198 11.308.04 6.225.08 9.574.08 10.126.04 1.34.079 2.6.04 3.861l-.555 7.29c-.555 5.398-1.267 9.338-2.178 11.86-.911 2.64-2.218 5.83-3.881 9.653-5.782 9.259-9.94 15.287-12.434 18.124-4.91 5.517-9.425 10.402-13.544 14.579-2.415 2.482-7.96 7.604-16.632 15.327-10.375 9.18-18.334 15.957-23.918 20.213zm9.82-12.293c.634.039 1.268-.119 1.941-.473.634-.394 1.109-.828 1.347-1.3.158-.591.118-1.104-.198-1.498-.357-.394-.872-.59-1.505-.59-.713-.04-1.347.157-1.98.511-.634.355-1.03.789-1.188 1.3-.198.513-.159.946.119 1.34.277.434.792.67 1.465.71zm11.05-10.678c-.476-.276-1.03-.315-1.664-.118a3.68 3.68 0 0 0-1.703 1.063c-.515.513-.752.985-.792 1.498-.079.512.119.906.555 1.182.396.236.91.276 1.584.118a4.99 4.99 0 0 0 1.782-.985c.514-.552.792-1.103.831-1.655 0-.512-.158-.867-.594-1.103z"/>
            <path fill="#434343" d="M357.889 298.524c-1.624-2.049-3.723-4.294-6.336-6.698-3.247-2.994-6.415-5.555-9.504-7.683-1.901-1.3-3.406-2.167-4.554-2.68.515-.59 2.376-2.285 5.623-5.122a708.685 708.685 0 0 0 9.702-8.51c3.128-2.916 8.316-8.156 15.484-15.643 7.207-7.525 12.553-13.83 16.077-18.912 3.05-4.374 6.732-10.048 11.088-16.943.317-.945.673-1.93.99-2.955 3.604-.079 7.524.946 11.682 3.113-2.02-3.94-5.267-6.935-9.741-8.905 2.772-.71 5.583-.867 8.395-.552-3.089-2.915-6.811-5.161-11.247-6.816l-1.98-6.422c.317-4.807.396-8.63.198-11.466-.237-2.837-.594-7.447-1.108-13.83-.515-6.383-.872-10.402-1.11-11.978-1.227-8.708-1.742-16.824-1.544-24.429.12-6.422 1.703-12.175 4.832-17.297 2.93-4.807 7.207-8.274 12.79-10.363.238-.039.515-.039.753-.039.079-.04.119-.04.198-.04h.594c1.188-.039 2.455.395 3.841 1.34.317.197.634.434.99.67 5.702 9.85 10.058 26.635 13.068 50.355.04.473.198 3.467.475 8.865.277 5.162.515 9.22.753 12.215.118 1.536.158 5.319.198 11.347.04 6.186.079 9.575.079 10.126.04 1.3.079 2.6.079 3.862l-.594 7.289c-.554 5.359-1.267 9.338-2.178 11.86-1.109 3.112-2.772 7.053-4.91 11.82-4.752 7.723-8.079 12.609-9.9 14.697-4.91 5.516-9.386 10.362-13.504 14.539-2.455 2.522-8 7.644-16.672 15.366-9.78 8.945-17.463 15.525-23.007 19.82z"/>
            <path fill="#9EA5AD" d="M381.61 283.946c.435.236.633.59.554 1.142-.04.552-.317 1.104-.832 1.655a4.99 4.99 0 0 1-1.782.985c-.634.158-1.188.119-1.584-.118-.436-.276-.634-.71-.554-1.182.04-.512.316-.985.792-1.497a3.68 3.68 0 0 1 1.702-1.064c.674-.236 1.228-.197 1.703.079zm-11.05 10.678c-.672-.04-1.187-.276-1.464-.67-.317-.394-.357-.867-.12-1.34.16-.512.595-.946 1.189-1.3a3.255 3.255 0 0 1 1.98-.512c.633 0 1.148.197 1.505.59.316.395.356.907.198 1.498-.278.512-.713.946-1.347 1.3a4.456 4.456 0 0 1-1.94.434z"/>
            <path fill="#1E1E1E" d="M360.74 306.917c-.515.276-1.109.394-1.742.394-2.376-.118-5.386-2.719-9.03-7.841-5.9-5.477-10.058-9.89-12.473-13.16-1.94-2.68-2.535-4.413-1.901-5.201.436-.079 1.03.079 1.822.394 1.148.473 2.653 1.379 4.554 2.68 3.088 2.127 6.256 4.688 9.504 7.682 2.613 2.404 4.712 4.65 6.336 6.699.554.709 1.069 1.379 1.544 2.049 2.02 2.955 2.455 5.082 1.386 6.304z"/>
        </g>
        <g>
            <path fill="#EEEEF3" d="M350.35 301.623c.358-.604.398-1.774.08-3.472-.479-3.17-2.828-6.415-7.169-9.774-1.792-1.396-3.504-2.49-5.177-3.207-1.712-.755-2.987-1.02-3.863-.755.956-.566 2.15-1.32 3.624-2.302.916.49 1.991 1.208 3.226 2.076 3.026 2.15 6.133 4.754 9.239 7.736 2.509 2.415 4.54 4.603 6.132 6.641.16.189.28.377.399.566l-6.491 2.49z"/>
            <path fill="#CBCBCB" d="M348.398 299.547l2.031-1.396c.319 1.698.279 2.868-.08 3.472-.437.264-1.114-.453-1.95-2.076z"/>
            <path fill="#FFDAAE" fill-rule="nonzero" d="M334.261 284.453s-14.655 7.434-22.062 14.038c0 0 19.474 2.83 36.2 1.056l2.03-1.396s-.239-3.51-5.177-8.113c0 0-6.69-6.189-10.99-5.585z"/>
        </g>
        <g>
            <path fill="#EFCBA5" d="M350.6 53.434c2.96.592 4.64 2.171 5 4.658 2.2 15.987 4.32 25.184 6.32 27.592 2 2.369 3.2 4.342 3.6 5.96.36 1.659.48 3 .44 4.106-.08 1.066-.24 1.974-.52 2.763-.28.79-.68 1.855-1.16 3.158-.48 1.303-2.08 3.197-4.76 5.684-2.68 2.487-5.68 4.342-8.96 5.566 3.88-3.118 6.6-5.842 8.16-8.25 1.56-2.408 2.48-4.224 2.76-5.526.24-1.263.28-2.527.04-3.75-.12-.513-.4-1.421-.92-2.645-.52-1.145-.76-1.737-.8-1.737-.28-.71-.92-1.934-1.92-3.71-2.76-4.698-5.2-15.987-7.28-33.869z"/>
            <path fill="#FFDAAE" d="M350.6 53.434c2.08 17.882 4.52 29.171 7.28 33.869 1 1.776 1.64 3 1.92 3.71 0 0 .28.592.8 1.737.52 1.224.8 2.132.92 2.645.24 1.223.2 2.487-.04 3.75-.28 1.302-1.2 3.118-2.76 5.526-1.56 2.408-4.28 5.171-8.16 8.25-12.08-.592-18.24-4.618-18.48-12.118 1.12-5.606.32-12.158-2.4-19.58-2.04-6.473-2.12-12-.24-16.539 1.56-3.868 4.48-6.868 8.76-9.079 3.88-2.013 7.6-2.802 11.2-2.368.4.04.8.118 1.2.197z"/>
        </g>
        <g>
            <path fill="#EFCBA5" d="M305.007 29.195a342.939 342.939 0 0 0-.276 14.391c2.094 3.993 2.806 7.393 2.173 10.121-.355 5.258 0 9.567 1.186 12.967a747.368 747.368 0 0 1 2.371 6.959c.435 1.265 1.739 5.455 3.992 12.493-1.146-2.768-2.964-6.682-5.533-11.742-.87-1.74-1.62-3.48-2.213-5.219-1.7-4.981-2.372-10.081-1.976-15.34.632-2.767-.08-6.167-2.174-10.16-.04-5.02.04-9.963.316-14.746.04-1.107.237-2.175.474-3.242-.197 1.265.356 2.45 1.66 3.518z"/>
            <path fill="#FFDAAE" d="M360.218 45.365c-1.541 10.2-4.11 14.233-7.746 12.098.356.83.83 1.581 1.423 2.332l-.593 2.847c-.949 4.27-4.11 9.093-9.485 14.39-4.387 4.31-8.142 7.077-11.303 8.342-3.399 1.345-7.825 2.175-13.358 2.53-2.016.159-3.597-.434-4.703-1.778-2.253-7.038-3.557-11.228-3.992-12.493a747.368 747.368 0 0 0-2.371-6.959c-1.146-3.36-1.541-7.67-1.186-12.967.633-2.767-.079-6.128-2.173-10.121-.04-4.902.04-9.686.276-14.39.277.237.633.474.988.711 1.976 1.226 4.94 2.214 8.892 2.965 7.51.395 14.386-.158 20.59-1.581 6.364-1.503 9.446-.435 9.249 3.123-.277 3.598-.158 6.326.355 8.184.475 1.818.949 3.242 1.344 4.19.395.91.712 2.056 1.028 3.48.276 1.344.513 3.755.79 7.195h2.885c.474-3.321.949-6.642 1.383-9.963.435-3.32 2.055-4.665 4.822-4.072 1.344.277 2.332.949 2.885 1.937zm-49.56 18.147c-1.066 3.558.514 4.783 4.704 3.597-2.253-.87-3.241-2.45-2.885-4.783.276-2.333.395-6.326.434-12.019-.553 5.298-1.264 9.686-2.252 13.205z"/>
            <path fill="#EFCBA5" d="M314.453 86.126c1.106 1.344 2.687 1.937 4.703 1.779 5.533-.356 9.998-1.186 13.358-2.53 3.122-1.266 6.916-4.033 11.303-8.342 5.375-5.298 8.536-10.121 9.485-14.391l.593-2.847a9.468 9.468 0 0 1-1.423-2.332c3.636 2.135 6.205-1.937 7.746-12.098.553.988.672 2.333.395 3.993-.514 3.36-.83 5.298-.87 5.772a43.782 43.782 0 0 0-.474 2.017c-.276.909-.316 1.462-.158 1.7.04-.04.119-.04.158-.08-1.383 2.847-2.766 3.598-4.15 2.254l-.75 3.598c-.91 4.27-4.07 9.093-9.485 14.39-4.387 4.31-8.141 7.117-11.264 8.342-3.398 1.344-7.864 2.175-13.437 2.53-2.687.238-4.584-.909-5.612-3.4a.638.638 0 0 0-.118-.355z"/>
            <path fill="#434343" d="M356.622 63.037c-.04.04-.159-1.384-.198-1.344 2.964-.79 2.53-3.637 2.806-4.507.198-.91.356-1.581.474-2.016.08-.475.356-2.412.87-5.772.276-1.7.158-3.045-.396-3.993-.553-.989-1.54-1.66-2.924-1.938-2.767-.593-4.347.752-4.822 4.073-.395 3.123-.83 6.246-1.304 9.37-.04.316-.316.553-.672.553h-1.7a.683.683 0 0 1-.671-.593c-.237-3.084-.474-5.298-.711-6.563-.317-1.423-.633-2.57-1.028-3.48-.395-.948-.87-2.371-1.344-4.19-.513-1.858-.632-4.586-.355-8.184.197-3.597-2.885-4.625-9.248-3.123-6.205 1.463-17.073 2.017-24.582 1.621-3.952-.751-6.916-1.74-8.892-2.965-.356-.237-.712-.474-.988-.712-1.265-1.067-1.818-2.253-1.66-3.518 0 0 .118-.08.276-.158 2.055-.87 2.964-3.282 2.055-5.338-.276-.672-.434-1.265-.118-1.779.474-.988 1.344-2.253 2.648-3.795 1.976-2.372 5.414-4.546 10.275-6.484 4.822-1.976 13.951-3.083 19.405-3.162 1.857-.04 3.636 0 5.375.197 3.873.435 7.43 1.463 10.71 3.123 5.296 2.689 9.13 6.88 11.5 12.573 1.344 3.202 2.293 6.048 2.807 8.54.671 3.28.869 6.997.592 11.069a83.16 83.16 0 0 1-.553 6.167c-.711 5.377-1.897 9.093-3.478 11.11-.553 2.095-3.636 4.941-4.15 5.218z"/>
            <path fill="#FFDAAE" d="M310.659 63.512c.988-3.48 1.739-7.907 2.252-13.205-.04 5.693-.158 9.686-.434 12.019-.356 2.332.632 3.914 2.885 4.783-4.23 1.147-5.77-.04-4.703-3.597z"/>
        </g>
    </g>
</svg>
