<svg xmlns="http://www.w3.org/2000/svg" width="469" height="288" viewBox="0 0 469 288">
    <g fill="#3880C1" fill-rule="nonzero" transform="translate(-18 -23)">
        <path d="M109.304 260.714a3.194 3.194 0 0 0-2.25-.934h-51.53c-.892 0-1.706.35-2.287.934-.582.583-.931 1.4-.931 2.256v89.16c0 .895.349 1.712.93 2.296a3.217 3.217 0 0 0 2.288.933h51.53c.892 0 1.668-.35 2.25-.933.581-.584.93-1.4.93-2.295V262.97c.039-.895-.349-1.673-.93-2.256zm-1.28 91.456c0 .272-.116.505-.271.7a1.032 1.032 0 0 1-.698.272h-51.53c-.272 0-.505-.117-.699-.272-.194-.195-.271-.428-.271-.7v-89.2c0-.272.116-.506.271-.7.194-.195.427-.273.698-.273h51.53c.272 0 .505.117.699.273.155.155.271.428.271.7v89.2z"/>
        <path d="M92.514 333.614H89.18c-.271 0-.504.078-.66.233-.038.04-.038.04-.077.078-.194.195-.31.467-.31.778v.778h-.116a21.394 21.394 0 0 1-8.414-2.178 23.683 23.683 0 0 1-7.406-5.797c-2.094-2.411-3.8-5.251-5.002-8.402a29.826 29.826 0 0 1-1.9-8.403h.543c.31 0 .582-.117.776-.311.193-.195.31-.467.31-.778v-3.346c0-.31-.117-.583-.31-.778a1.08 1.08 0 0 0-.776-.31h-.543c.272-2.957.892-5.797 1.9-8.403 1.202-3.151 2.908-5.991 5.002-8.403 2.133-2.45 4.614-4.435 7.406-5.796 2.598-1.284 5.428-2.062 8.414-2.179h.116v.74c0 .31.116.583.31.778.194.194.466.272.737.272h3.334c.31 0 .582-.117.776-.311l.078-.078c.155-.195.232-.428.232-.661v-3.346c0-.311-.116-.583-.31-.778a1.08 1.08 0 0 0-.776-.311H89.18c-.31 0-.582.117-.776.311-.193.195-.31.467-.31.778v.584c-3.18.116-6.242.894-8.995 2.217-3.18 1.517-6.01 3.734-8.375 6.457-2.25 2.568-4.072 5.641-5.351 9.025a.564.564 0 0 0-.078.273v-15.25c.31-.155.62-.35.853-.583a2.774 2.774 0 0 0 .815-1.945c0-.778-.31-1.44-.815-1.945a2.756 2.756 0 0 0-1.938-.817c-.737 0-1.435.311-1.94.817a2.774 2.774 0 0 0-.813 1.945c0 .778.31 1.44.814 1.945l.039.039c.232.233.504.428.814.545v24.08h-.582c-.271 0-.504.077-.659.233l-.077.077c-.194.195-.31.467-.31.778v3.346c0 .272.116.545.27.74.195.194.466.31.776.31h.582v24.08a2.31 2.31 0 0 0-.814.545l-.04.038a2.774 2.774 0 0 0-.813 1.945c0 .74.31 1.44.814 1.946a2.756 2.756 0 0 0 1.939.816c.775 0 1.434-.31 1.938-.816a2.774 2.774 0 0 0 .815-1.946c0-.778-.31-1.439-.815-1.945-.232-.233-.543-.466-.853-.583v-15.25c.039.079.078.156.078.273a30.044 30.044 0 0 0 5.35 9.025c2.366 2.723 5.235 4.94 8.376 6.458a22.878 22.878 0 0 0 8.995 2.217v.583c0 .273.117.545.272.74.194.194.465.31.775.31h3.335c.31 0 .581-.116.775-.31.194-.195.31-.467.31-.778v-3.346c0-.311-.116-.583-.31-.778-.155-.156-.426-.272-.737-.272zm-2.869-55.356h2.404v2.412h-2.404v-2.412zm-26.288-.545c.232-.233.542-.35.891-.35.35 0 .66.156.853.35.233.234.35.545.35.856 0 .35-.156.661-.35.856a1.2 1.2 0 0 1-.853.35c-.31 0-.62-.117-.814-.311l-.039-.04a1.209 1.209 0 0 1-.349-.855c-.038-.35.078-.661.31-.856zm-.35 28.981h2.405v2.412h-2.443v-2.412h.039zm2.056 31.432a1.2 1.2 0 0 1-.853.35c-.35 0-.66-.155-.853-.35-.194-.233-.35-.505-.35-.856 0-.35.156-.66.35-.855l.038-.04c.233-.194.504-.31.815-.31.349 0 .659.155.853.35.232.233.349.544.349.855 0 .312-.117.623-.35.856zm27.025-.583h-2.404v-2.412h2.404v2.412z"/>
        <path d="M96.392 303.505H86.078v-7.236a.945.945 0 0 0-.93-.934.95.95 0 0 0-.582.195l-17.177 11.592c-.271.156-.426.467-.426.778 0 .312.193.623.426.778l17.254 11.632c.427.272.97.155 1.28-.234a.858.858 0 0 0 .155-.505v-7.197h10.314c.504 0 .93-.428.93-.934v-7.002a.92.92 0 0 0-.93-.933zm-11.245 1.828h10.314v1.673H70.88l13.338-9.025v6.418c.039.545.426.934.93.934zm0 5.213a.945.945 0 0 0-.93.933v6.419l-13.338-9.025H95.46v1.673H85.147zM86.117 228.543h-3.025c-.697 0-1.28.583-1.28 1.283s.583 1.284 1.28 1.284h3.025c.698 0 1.28-.583 1.28-1.284.038-.7-.543-1.283-1.28-1.283z"/>
        <path d="M31.756 239.902h-18.69c-.27 0-.542.116-.736.31a.998.998 0 0 0-.31.74c0 .311.116.545.31.74a.991.991 0 0 0 .737.31h66.73c.271 0 .542-.116.736-.31a.998.998 0 0 0 .31-.74c0-.272-.116-.545-.31-.74a.991.991 0 0 0-.736-.31H61.03V222.94h5.312v9.18c0 .817.35 1.556.853 2.101.543.545 1.28.856 2.094.856H99.92c.815 0 1.551-.35 2.094-.856a2.943 2.943 0 0 0 .853-2.1v-47.07c0-.818-.349-1.557-.853-2.101a2.924 2.924 0 0 0-2.094-.856h-7.134v-15.288c0-.311-.039-.623-.116-.934v-25.635h54.516v28.747c0 .195-.04.39-.117.584a1.48 1.48 0 0 1-.349.506 1.475 1.475 0 0 1-1.085.466 1.475 1.475 0 0 1-1.086-.467 1.48 1.48 0 0 1-.465-1.089v-.233a3.373 3.373 0 0 0-.233-.895c-.155-.35-.388-.7-.659-.972a3.302 3.302 0 0 0-.97-.662 2.774 2.774 0 0 0-1.124-.233c-.388 0-.775.078-1.124.233a3.302 3.302 0 0 0-.97.662 3.314 3.314 0 0 0-.659.972 3.373 3.373 0 0 0-.232.895v9.57c0 .194-.04.389-.117.583a1.48 1.48 0 0 1-.349.506 1.475 1.475 0 0 1-1.085.467 1.475 1.475 0 0 1-1.086-.467 1.48 1.48 0 0 1-.465-1.09v-.233a3.373 3.373 0 0 0-.233-.895c-.155-.35-.388-.7-.66-.972a3.302 3.302 0 0 0-.968-.661 2.774 2.774 0 0 0-1.125-.234c-.388 0-.775.078-1.124.234a3.302 3.302 0 0 0-.97.66 3.314 3.314 0 0 0-.659.973c-.155.35-.233.74-.233 1.129v7.585h-.387c-1.28 0-2.52.273-3.645.74a9.952 9.952 0 0 0-3.102 2.1 9.989 9.989 0 0 0-2.094 3.112 9.616 9.616 0 0 0-.736 3.657v11.164c0 1.284.271 2.529.736 3.657a9.989 9.989 0 0 0 2.094 3.112 9.952 9.952 0 0 0 3.102 2.1 9.531 9.531 0 0 0 3.645.74h2.443c1.279 0 2.52-.273 3.644-.74a9.952 9.952 0 0 0 3.102-2.1 9.989 9.989 0 0 0 2.094-3.112 9.616 9.616 0 0 0 .737-3.657v-11.164a9.616 9.616 0 0 0-.737-3.657 9.989 9.989 0 0 0-2.094-3.112 9.952 9.952 0 0 0-3.102-2.1 9.531 9.531 0 0 0-3.644-.74h-.582v-7.585a1.48 1.48 0 0 1 .465-1.09 1.475 1.475 0 0 1 1.086-.466 1.475 1.475 0 0 1 1.086.467 1.48 1.48 0 0 1 .465 1.089v.233c.039.311.116.622.232.895.156.35.388.7.66.972.271.273.62.506.969.662.349.155.737.233 1.124.233.388 0 .776-.078 1.125-.233.349-.156.698-.39.97-.662.27-.272.503-.622.658-.972.155-.35.233-.74.233-1.128v-9.376c0-.194.039-.389.116-.544a1.48 1.48 0 0 1 .35-.506 1.475 1.475 0 0 1 1.085-.467 1.475 1.475 0 0 1 1.086.467 1.48 1.48 0 0 1 .465 1.09v.233c.077.739.388 1.4.853 1.867.271.272.62.506.97.661.348.156.736.234 1.124.234.387 0 .775-.078 1.124-.234.35-.155.698-.389.97-.661.27-.272.504-.622.659-.973.155-.35.232-.739.232-1.128v-28.747h7.251c.543 0 .97-.428.97-.973a.962.962 0 0 0-.97-.972H92.67v-6.691c14.501-.156 29.545-3.463 29.545-9.531V76.946c0-6.185-15.703-9.53-30.515-9.53-14.773 0-30.515 3.345-30.515 9.53v45.125c0 6.068 15.044 9.414 29.546 9.53v6.692H47.38c-.348-1.556-1.744-2.762-3.411-2.762-1.59 0-2.947 1.089-3.374 2.567h-8.918c-.349-1.167-1.24-2.1-2.404-2.412v-3.695a.962.962 0 0 0-.97-.973.962.962 0 0 0-.968.973v3.695c-1.164.35-2.094 1.245-2.404 2.412h-8.88c-.426-1.478-1.783-2.567-3.373-2.567-1.939 0-3.528 1.595-3.528 3.54s1.59 3.54 3.528 3.54c1.59 0 2.947-1.09 3.373-2.568h8.88c.426 1.478 1.783 2.568 3.373 2.568 1.59 0 2.947-1.09 3.373-2.568h8.88c.426 1.478 1.783 2.568 3.373 2.568 1.55 0 2.83-1.012 3.334-2.373h43.427v23.301a3.372 3.372 0 0 0-1.55-.35H3.644c-1.008 0-1.9.39-2.56 1.05a3.565 3.565 0 0 0-1.046 2.529v52.555c0 1.984 1.628 3.618 3.606 3.618h28.11v16.96zm107.559-33.222c0 2.257-.931 4.28-2.404 5.758a8.333 8.333 0 0 1-2.637 1.789 8.328 8.328 0 0 1-3.102.622h-2.443a8.328 8.328 0 0 1-3.102-.622c-1.008-.428-1.9-1.011-2.636-1.79a8.363 8.363 0 0 1-1.784-2.645 8.402 8.402 0 0 1-.62-3.112v-10.114c1.59.272 3.257.506 4.885.661a59.12 59.12 0 0 0 5.274.234c1.473 0 2.946-.04 4.42-.156 1.396-.117 2.753-.233 4.071-.428v9.803h.078zm-5.041-18.711c1.008.428 1.9 1.011 2.637 1.79a8.363 8.363 0 0 1 1.783 2.645c.388.933.582 1.945.62 2.995a69.84 69.84 0 0 1-4.11.467 54.316 54.316 0 0 1-4.38.155c-1.785 0-3.53-.077-5.235-.233a65.332 65.332 0 0 1-4.925-.661 7.6 7.6 0 0 1 .66-2.801 8.357 8.357 0 0 1 1.744-2.568 8.333 8.333 0 0 1 2.637-1.789 8.328 8.328 0 0 1 3.102-.622h2.443c1.046 0 2.093.233 3.024.622zm-13.997-96.63c0 3.58-11.749 7.586-28.577 7.586-16.828 0-28.576-4.007-28.576-7.586V80.486c4.653 3.929 16.905 6.03 28.576 6.03s23.924-2.101 28.577-6.03v10.853zm-57.153 3.54c4.653 3.93 16.905 6.03 28.576 6.03s23.924-2.1 28.577-6.03v11.826c0 3.579-11.749 7.586-28.577 7.586-16.828 0-28.576-4.007-28.576-7.586V94.88zM91.7 69.321c16.828 0 28.577 4.007 28.577 7.586 0 3.579-11.749 7.586-28.577 7.586-16.828 0-28.576-4.007-28.576-7.586 0-3.579 11.748-7.586 28.576-7.586zm-28.576 52.75v-11.826c4.653 3.929 16.905 6.03 28.576 6.03s23.924-2.101 28.577-6.03v11.826c0 3.579-11.749 7.586-28.577 7.586-16.828 0-28.576-4.007-28.576-7.586zM12.64 140.666a1.6 1.6 0 0 1-1.59-1.595c0-.895.698-1.595 1.59-1.595.892 0 1.59.7 1.59 1.595 0 .894-.698 1.595-1.59 1.595zm15.665 0a1.6 1.6 0 0 1-1.59-1.595c0-.895.698-1.595 1.59-1.595.853 0 1.59.7 1.59 1.595 0 .894-.698 1.595-1.59 1.595zm15.665 0a1.6 1.6 0 0 1-1.59-1.595c0-.895.698-1.595 1.59-1.595.891 0 1.59.7 1.59 1.595a1.6 1.6 0 0 1-1.59 1.595zm15.044 99.236H33.81V222.94h25.203v16.96zm27.22-57.807H69.327c-.815 0-1.551.35-2.094.856a2.943 2.943 0 0 0-.853 2.1v10.932H51.957a.862.862 0 0 0-.853.855c0 .467.388.856.853.856h14.424v9.103H54.632l5.855-4.124c.388-.272.466-.816.194-1.167-.271-.389-.814-.466-1.163-.194l-7.988 5.602a.835.835 0 0 0-.426.739c0 .311.155.583.426.739l7.988 5.602c.388.272.93.155 1.163-.195.272-.389.155-.933-.194-1.167l-5.893-4.123h11.748v8.091H7.483a.862.862 0 0 1-.853-.856v-45.32c0-.466.388-.855.853-.855H85.38c.465 0 .853.389.853.856v11.67zm-9.733 20.89c.271.389.814.467 1.163.194l7.988-5.602a.835.835 0 0 0 .426-.739.835.835 0 0 0-.426-.739l-7.988-5.601c-.388-.273-.93-.156-1.163.194-.272.389-.155.934.194 1.167l5.855 4.124H72.546v-7.392c0-.155.077-.272.155-.35a.577.577 0 0 1 .349-.155h23.11a.49.49 0 0 1 .348.155.58.58 0 0 1 .155.35v35.79c0 .155-.038.271-.155.35a.577.577 0 0 1-.349.155H73.09c-.155 0-.272-.039-.35-.156a.58.58 0 0 1-.154-.35V208.51h12.679a.862.862 0 0 0 .853-.856.862.862 0 0 0-.853-.856h-12.68v-9.103h10.004l-5.854 4.124c-.388.272-.466.778-.233 1.167zm-5.894 3.812H68.32v-9.103h2.287v9.103zm30.011-22.446c.194.195.31.428.31.7v47.07c0 .273-.116.545-.31.7-.194.195-.426.312-.698.312H69.29c-.271 0-.543-.117-.698-.311a.976.976 0 0 1-.31-.7v-23.613h2.287v15.91c0 .7.272 1.323.737 1.75.465.467 1.086.74 1.745.74h23.11c.658 0 1.279-.273 1.744-.74.465-.466.737-1.089.737-1.75V188.63c0-.7-.272-1.283-.737-1.75a2.463 2.463 0 0 0-1.745-.74H73.09c-.698 0-1.319.273-1.745.74a2.479 2.479 0 0 0-.737 1.75v7.391H68.32v-10.93c0-.273.116-.545.31-.7.194-.195.426-.312.698-.312h30.631c.233-.039.504.078.66.272zm-98.059 36.1a1.657 1.657 0 0 1-.465-1.128v-52.516c0-.428.194-.817.465-1.128a1.646 1.646 0 0 1 1.125-.467h85.535c.426 0 .814.194 1.124.467.194.194.35.467.427.739v.544c0 .117 0 .195.038.273v14.86h-2.597v-11.67c0-.778-.31-1.479-.815-1.984a2.778 2.778 0 0 0-1.977-.817H7.483c-1.55 0-2.83 1.284-2.83 2.84v45.32c0 .777.31 1.477.814 1.983a2.778 2.778 0 0 0 1.978.817h58.858v2.373H3.645a1.777 1.777 0 0 1-1.086-.506z"/>
        <path d="M45.21 180.111c0-.233-.077-.467-.271-.622a.914.914 0 0 0-.62-.273c-.233 0-.466.078-.62.273l-2.521 2.528a.92.92 0 0 0-.272.623c0 .233.078.466.272.622a.914.914 0 0 0 .62.272c.233 0 .466-.078.62-.272l2.52-2.529c.156-.194.272-.389.272-.622zM43.194 188.475a.78.78 0 0 0 .66.077l3.45-.933c.233-.078.427-.234.543-.428a.787.787 0 0 0 .078-.661 1.006 1.006 0 0 0-.427-.545.78.78 0 0 0-.66-.078l-3.45.934a1.003 1.003 0 0 0-.543.428.787.787 0 0 0-.077.661.883.883 0 0 0 .426.545zM36.486 181.667a.78.78 0 0 0 .66-.078c.193-.116.348-.311.426-.544l.93-3.463a.787.787 0 0 0-.077-.66 1.003 1.003 0 0 0-.543-.429.78.78 0 0 0-.66.078 1.006 1.006 0 0 0-.426.545l-.93 3.462a.787.787 0 0 0 .077.661c.117.195.31.35.543.428zM47.847 193.22a1.003 1.003 0 0 0-.543-.427l-3.45-.934a.78.78 0 0 0-.66.078 1.006 1.006 0 0 0-.426.544.787.787 0 0 0 .077.662c.116.194.31.35.543.428l3.45.933a.78.78 0 0 0 .66-.077c.194-.117.349-.312.427-.545a.787.787 0 0 0-.078-.661zM29.933 177.544l.931 3.462c.078.233.233.428.427.544a.78.78 0 0 0 .659.078c.232-.078.426-.233.543-.428a.787.787 0 0 0 .077-.661l-.93-3.462a1.006 1.006 0 0 0-.427-.545.78.78 0 0 0-.66-.078 1.003 1.003 0 0 0-.542.428 1.252 1.252 0 0 0-.078.662zM38.619 186.218c-.039-.038-.039-.077-.078-.155l-.039-.04c-.038-.038-.038-.077-.077-.077-.078-.078-.155-.117-.233-.155h-.038c-.04 0-.078-.04-.117-.04h-.155-.194l-19.31 3.774a.923.923 0 0 0-.426.233.8.8 0 0 0 0 1.129l4.925 4.901-6.98 6.963a.8.8 0 0 0 0 1.128l2.365 2.373 2.366 2.373a.794.794 0 0 0 1.124 0l6.94-7.002 4.847 4.863a.765.765 0 0 0 .427.233c.426.078.853-.194.93-.622l3.762-19.373v-.117-.038a.38.38 0 0 0-.04-.35zm-14.075 10.115a.8.8 0 0 0 0-1.128l-4.382-4.396 15.277-2.996-16.634 16.689-1.202-1.206 6.94-6.963zm9.073 7.974l-4.381-4.395a.794.794 0 0 0-1.125 0l-6.94 6.963-1.202-1.206 16.634-16.689-2.986 15.327zM128.458 188.864a1.758 1.758 0 0 0-.427.661c-.116.233-.155.506-.155.778v3.034c0 .273.039.545.155.778.117.234.233.467.427.662.194.194.388.35.659.428.233.116.504.155.776.155.27 0 .542-.039.775-.155.233-.117.465-.234.66-.428.193-.195.348-.39.426-.662.116-.233.155-.505.155-.778v-3.034c0-.272-.039-.545-.155-.778-.117-.233-.233-.467-.427-.661-.194-.195-.388-.35-.659-.428-.233-.117-.504-.156-.775-.156-.272 0-.543.04-.776.156a1.75 1.75 0 0 0-.66.428zm.737 1.4c0-.078 0-.194.038-.272.04-.078.078-.156.155-.234.078-.077.156-.116.233-.155.078-.04.155-.04.272-.04.077 0 .193 0 .27.04.078.039.156.078.234.155.077.078.116.156.155.234.038.078.038.155.038.272v3.034c0 .078 0 .195-.038.273-.04.077-.078.155-.155.233-.078.078-.156.117-.233.156-.078.039-.155.039-.271.039-.078 0-.194 0-.272-.04-.077-.038-.155-.077-.233-.155-.077-.078-.116-.156-.155-.233-.038-.078-.038-.156-.038-.273v-3.034zM130.086 155.954c-.659 0-1.202.233-1.55.66-.466.545-.66 1.401-.66 2.607 0 1.206.194 2.062.62 2.529.427.467.97.7 1.63.7.658 0 1.201-.233 1.55-.661.465-.545.66-1.4.66-2.607 0-1.206-.233-2.061-.66-2.606a2.255 2.255 0 0 0-1.59-.622zm.698 4.862c-.077.234-.155.428-.271.506-.116.078-.272.155-.427.155a.582.582 0 0 1-.426-.155c-.116-.078-.233-.272-.31-.545-.078-.272-.117-.778-.117-1.556 0-.739.04-1.284.117-1.595.077-.233.155-.428.271-.505.116-.078.272-.156.427-.156.155 0 .31.039.426.156.116.077.233.272.31.544.078.273.117.778.117 1.556.038.74-.04 1.284-.117 1.595zM135.437 162.45c.66 0 1.202-.233 1.551-.661.465-.545.66-1.4.66-2.607 0-1.206-.233-2.061-.66-2.606-.388-.428-.892-.661-1.55-.661-.66 0-1.203.233-1.552.661-.465.545-.659 1.4-.659 2.606s.194 2.062.62 2.529c.388.506.892.739 1.59.739zm-.698-4.824c.078-.233.155-.428.272-.505.116-.078.271-.156.426-.156.155 0 .31.039.427.156.116.077.232.272.31.544.077.273.116.778.116 1.556 0 .74-.039 1.284-.116 1.595-.078.234-.155.428-.272.506-.116.078-.27.155-.426.155a.582.582 0 0 1-.427-.155c-.116-.078-.232-.272-.31-.545-.077-.272-.116-.778-.116-1.556-.039-.739 0-1.284.116-1.595zM118.958 159.221c0-1.206-.232-2.062-.659-2.606-.388-.428-.892-.661-1.55-.661-.66 0-1.203.233-1.552.66-.465.545-.659 1.401-.659 2.607 0 1.206.194 2.062.62 2.529.427.467.97.7 1.629.7.66 0 1.202-.233 1.55-.661.389-.506.621-1.362.621-2.568zm-1.55 1.595c-.078.234-.156.428-.272.506-.116.078-.272.155-.427.155a.582.582 0 0 1-.426-.155c-.116-.078-.233-.272-.31-.545-.078-.272-.117-.778-.117-1.556 0-.739.04-1.284.117-1.595.077-.233.155-.428.271-.505.116-.078.272-.156.427-.156.155 0 .31.039.426.156.116.077.233.272.31.544.078.273.117.778.117 1.556.038.74 0 1.284-.117 1.595zM121.323 156.965c-.387.272-.775.506-1.124.583v1.129a4.567 4.567 0 0 0 1.706-.934v4.59h1.318v-6.38h-1.085c-.155.39-.427.74-.815 1.012zM141.912 162.333v-6.38h-1.085c-.155.39-.427.74-.815 1.012-.387.272-.775.506-1.124.583v1.129a4.567 4.567 0 0 0 1.706-.934v4.59h1.318zM127.1 167.43a4.567 4.567 0 0 0 1.707-.934v4.59h1.318v-6.38h-1.086c-.155.39-.426.74-.814 1.012-.387.272-.775.505-1.124.583v1.128zM121.401 167.974c0 1.206.194 2.062.62 2.528.427.467.931.7 1.629.7 1.861 0 2.249-1.71 2.249-3.267 0-1.556-.35-3.268-2.25-3.268-1.899.078-2.248 1.75-2.248 3.307zm1.512-1.595c.117-.35.31-.661.698-.661.427 0 .62.31.737.7.077.272.116.778.116 1.556 0 .739-.039 1.284-.116 1.595-.116.35-.31.661-.698.661-.427 0-.62-.311-.737-.7-.077-.272-.116-.778-.116-1.556 0-.74.039-1.284.116-1.595zM118.26 171.242c1.861 0 2.25-1.712 2.25-3.268 0-1.556-.35-3.268-2.25-3.268-1.86 0-2.249 1.673-2.249 3.229 0 1.206.194 2.062.62 2.529.427.544.97.778 1.63.778zm-.698-4.863c.117-.35.31-.661.698-.661.427 0 .62.31.737.7.078.272.116.778.116 1.556 0 .739-.038 1.284-.116 1.595-.116.35-.31.661-.698.661-.426 0-.62-.311-.737-.7-.077-.272-.116-.778-.116-1.556 0-.74.039-1.284.116-1.595zM111.397 171.125v-6.38h-1.085c-.155.39-.427.74-.815 1.012-.387.272-.775.505-1.124.583v1.09a4.567 4.567 0 0 0 1.706-.934v4.59h1.318v.039zM131.754 167.974c0 1.206.194 2.062.62 2.528.427.467.97.7 1.629.7s1.202-.233 1.55-.66c.466-.545.66-1.401.66-2.607 0-1.206-.233-2.062-.66-2.606-.387-.428-.891-.662-1.55-.662-.66 0-1.202.234-1.551.662-.504.583-.698 1.439-.698 2.645zm1.512-1.595c.077-.233.155-.428.271-.506.117-.078.272-.155.427-.155.155 0 .31.039.426.155.117.078.233.273.31.545.078.272.117.778.117 1.556 0 .739-.039 1.284-.117 1.595-.077.233-.155.428-.27.506-.117.077-.272.155-.427.155a.582.582 0 0 1-.427-.155c-.116-.078-.233-.273-.31-.545-.078-.272-.116-.778-.116-1.556 0-.74.038-1.284.116-1.595zM22.179 66.482h5.97v5.096h-3.334a.98.98 0 0 0-.892.583.958.958 0 0 0 .194 1.05l9.888 10.154c.194.194.426.31.698.31.271 0 .504-.116.698-.31l10.546-10.893a.958.958 0 0 0 .194-1.05.98.98 0 0 0-.892-.584h-3.334V54.383a.962.962 0 0 0-.97-.972h-1.59l7.716-7.936 7.833 8.091h-1.396a.962.962 0 0 0-.97.973v10.97c0 .545.427.973.97.973h10.197c5.778 0 10.47-4.824 10.47-10.776 0-4.551-2.792-8.597-6.902-10.114.038-.545.077-1.05.077-1.595 0-8.17-6.475-14.86-14.424-14.86-.465 0-.93.039-1.396.078-2.636-6.575-8.918-10.932-15.897-10.932-9.5 0-17.215 7.936-17.215 17.7 0 .428 0 .856.038 1.284-6.281 1.712-10.779 7.586-10.779 14.354.039 8.17 6.514 14.86 14.502 14.86zM19.736 38.94c.504-.117.814-.584.775-1.05a16.726 16.726 0 0 1-.116-1.907c-.039-8.713 6.824-15.755 15.238-15.755 6.398 0 12.175 4.163 14.347 10.387.155.428.62.7 1.046.622.62-.077 1.241-.155 1.9-.155 6.902 0 12.486 5.796 12.486 12.915 0 .7-.04 1.4-.156 2.1a.961.961 0 0 0 .698 1.09c3.684 1.05 6.282 4.551 6.282 8.519 0 4.863-3.839 8.83-8.53 8.83h-9.229v-9.024h2.753a.98.98 0 0 0 .892-.584.958.958 0 0 0-.194-1.05L47.77 43.413c-.349-.389-1.008-.389-1.395 0L36.37 53.723a.958.958 0 0 0-.194 1.05.98.98 0 0 0 .892.583h2.908V71.81c0 .545.426.973.97.973h1.977l-8.26 8.519-7.56-7.82h2.016c.543 0 .97-.427.97-.972v-7.04a.962.962 0 0 0-.97-.973h-6.94c-6.902 0-12.486-5.797-12.486-12.915-.038-6.108 4.188-11.437 10.043-12.643zM380.527 64.42h6.94c.543 0 .97-.428.97-.973a.962.962 0 0 0-.97-.972h-6.94c-6.902 0-12.485-5.796-12.485-12.915 0-6.147 4.226-11.476 10.08-12.643.505-.117.815-.584.776-1.05a16.21 16.21 0 0 1-.116-1.907c0-8.674 6.863-15.754 15.277-15.754 6.398 0 12.175 4.162 14.346 10.386.155.428.62.7 1.047.623.62-.078 1.241-.156 1.9-.156 6.902 0 12.485 5.796 12.485 12.915 0 .7-.038 1.4-.155 2.1a.961.961 0 0 0 .698 1.09c3.684 1.05 6.282 4.551 6.282 8.52 0 4.862-3.84 8.83-8.53 8.83h-10.198a.962.962 0 0 0-.97.972c0 .545.427.973.97.973h10.197c5.778 0 10.47-4.824 10.47-10.776 0-4.551-2.792-8.597-6.903-10.114.04-.545.078-1.05.078-1.595 0-8.17-6.475-14.86-14.424-14.86-.465 0-.93.039-1.396.078-2.636-6.575-8.918-10.931-15.897-10.931-9.5 0-17.216 7.935-17.216 17.7 0 .427 0 .855.04 1.283-6.282 1.712-10.78 7.586-10.78 14.355 0 8.169 6.475 14.82 14.424 14.82zM168.55 188.552h4.537v3.618h-2.443a.98.98 0 0 0-.892.584.958.958 0 0 0 .194 1.05l7.793 8.014c.194.194.427.31.698.31.272 0 .504-.116.698-.31l8.337-8.597a.958.958 0 0 0 .194-1.05.98.98 0 0 0-.892-.584h-2.404v-12.76a.962.962 0 0 0-.97-.972h-.775l5.622-5.758 5.7 5.874h-.66a.962.962 0 0 0-.969.973v8.636c0 .545.427.972.97.972h8.065c4.691 0 8.491-3.89 8.491-8.713 0-3.618-2.21-6.847-5.428-8.13.039-.39.039-.74.039-1.129 0-6.574-5.196-11.903-11.594-11.903-.31 0-.659 0-.969.039-2.133-5.174-7.134-8.636-12.68-8.636-7.599 0-13.764 6.34-13.764 14.16 0 .272 0 .583.039.855-4.963 1.44-8.492 6.108-8.492 11.476-.038 6.613 5.196 11.981 11.555 11.981zm-1.861-21.706c.504-.117.814-.584.775-1.05-.077-.506-.077-1.012-.077-1.479 0-6.73 5.312-12.215 11.826-12.215 4.963 0 9.422 3.23 11.128 8.053.155.428.582.7 1.047.622.465-.078.97-.116 1.473-.116 5.312 0 9.655 4.473 9.655 9.958 0 .545-.039 1.09-.116 1.634a.961.961 0 0 0 .698 1.09c2.83.816 4.808 3.5 4.808 6.535 0 3.734-2.947 6.768-6.553 6.768h-7.096v-6.69h1.978a.98.98 0 0 0 .891-.584.958.958 0 0 0-.193-1.05l-7.988-8.325c-.349-.39-1.008-.39-1.396 0l-7.91 8.13a.958.958 0 0 0-.193 1.05.98.98 0 0 0 .891.584h2.094v12.798c0 .545.427.973.97.973h1.085l-6.049 6.224-5.505-5.64h1.124c.543 0 .97-.429.97-.973v-5.563a.962.962 0 0 0-.97-.973h-5.506c-5.312 0-9.655-4.473-9.655-9.958 0-4.785 3.296-8.908 7.794-9.803zM11.787 129.462h32.687c2.326 0 4.226-1.906 4.226-4.24v-5.135c0-1.284-.582-2.45-1.512-3.229a4.205 4.205 0 0 0 1.512-3.229v-5.134c0-1.284-.582-2.451-1.512-3.23a4.205 4.205 0 0 0 1.512-3.228v-5.174c0-2.334-1.9-4.24-4.226-4.24H11.787c-2.326 0-4.226 1.906-4.226 4.24v5.135c0 1.284.582 2.45 1.512 3.229a4.205 4.205 0 0 0-1.512 3.229v5.135c0 1.283.582 2.45 1.512 3.228a4.205 4.205 0 0 0-1.512 3.23v5.134c-.039 2.412 1.861 4.28 4.226 4.28zm-2.326-27.464v-5.135a2.296 2.296 0 0 1 2.287-2.295h32.687c1.28 0 2.288 1.05 2.288 2.295v5.135c0 1.128-.776 2.062-1.823 2.256-.155 0-.31-.039-.465-.039H11.787c-.155 0-.31 0-.465.04a2.297 2.297 0 0 1-1.861-2.257zm0 11.631v-5.134c0-1.129.775-2.023 1.822-2.257.155 0 .31.04.465.04h32.687c.155 0 .31 0 .465-.04 1.047.234 1.823 1.128 1.823 2.257v5.134c0 1.129-.776 2.062-1.823 2.257-.155 0-.31-.04-.465-.04H11.787c-.155 0-.31 0-.465.04-1.047-.234-1.861-1.167-1.861-2.257zm2.326 4.24h32.687c.155 0 .31 0 .465-.038 1.047.233 1.822 1.128 1.822 2.256v5.135a2.296 2.296 0 0 1-2.287 2.295H11.787a2.296 2.296 0 0 1-2.287-2.295v-5.135c0-1.128.775-2.023 1.822-2.256.155.039.31.039.465.039z"/>
        <path d="M18.379 123.394c.543 0 .97-.428.97-.973a.962.962 0 0 0-.97-.973.962.962 0 0 0-.97.973c0 .545.427.973.97.973zM27.878 123.394h11.129c.542 0 .969-.428.969-.973a.962.962 0 0 0-.97-.973H27.879a.962.962 0 0 0-.969.973c0 .545.465.973.97.973zM18.379 111.996c.543 0 .97-.428.97-.973a.962.962 0 0 0-.97-.972.962.962 0 0 0-.97.972c0 .545.427.973.97.973zM27.878 111.996h11.129c.542 0 .969-.428.969-.973 0-.545-.427-.934-.97-.934H27.879a.962.962 0 0 0-.969.973c0 .545.465.934.97.934zM18.379 100.598c.543 0 .97-.428.97-.973a.962.962 0 0 0-.97-.972.962.962 0 0 0-.97.972c0 .545.427.973.97.973zM27.878 100.598h11.129c.542 0 .969-.428.969-.973a.962.962 0 0 0-.97-.972H27.879a.962.962 0 0 0-.969.972c0 .545.465.973.97.973zM410.926 262.58c-3.141.701-5.778 2.568-7.522 5.252-1.707 2.723-2.288 5.913-1.59 9.064.698 3.151 2.559 5.797 5.234 7.547a11.862 11.862 0 0 0 6.437 1.906c.853 0 1.745-.078 2.598-.272 3.14-.7 5.777-2.568 7.522-5.252 1.745-2.684 2.287-5.913 1.59-9.064-1.396-6.496-7.794-10.58-14.27-9.18zm11.4 17.39c-1.513 2.372-3.84 3.967-6.554 4.59-2.714.622-5.506.117-7.87-1.4-2.366-1.518-3.956-3.852-4.576-6.575-.582-2.723-.116-5.524 1.396-7.897s3.838-3.968 6.553-4.59a11.038 11.038 0 0 1 2.248-.233c4.77 0 9.112 3.345 10.198 8.208.582 2.723.078 5.524-1.396 7.897zM439.192 226.909c-1.59-.817-3.374-.934-5.08-.39a6.54 6.54 0 0 0-3.877 3.307c-.814 1.595-.93 3.385-.388 5.096a6.55 6.55 0 0 0 3.296 3.89c.93.467 1.978.74 3.024.74.698 0 1.396-.117 2.055-.312a6.54 6.54 0 0 0 3.878-3.306c.814-1.595.93-3.385.388-5.096-.543-1.712-1.706-3.112-3.296-3.93zm1.55 8.286a5.08 5.08 0 0 1-2.985 2.528 4.987 4.987 0 0 1-3.877-.311 5.087 5.087 0 0 1-2.52-2.995 5.032 5.032 0 0 1 .31-3.89 5.08 5.08 0 0 1 2.985-2.529 5.422 5.422 0 0 1 1.59-.233c.775 0 1.59.194 2.326.544a5.087 5.087 0 0 1 2.52 2.996c.427 1.322.272 2.684-.348 3.89z"/>
        <path d="M455.903 231.85l-4.032-.857a15.64 15.64 0 0 0-1.9-5.874l2.753-3.073c.155-.155.194-.35.194-.544 0-.195-.117-.39-.272-.545l-6.669-6.03c-.31-.272-.814-.272-1.085.04l-2.83 3.15a16.879 16.879 0 0 0-5.856-1.167l-1.357-4.162a.908.908 0 0 0-.388-.467c-.193-.078-.387-.117-.581-.039l-8.53 2.762a.906.906 0 0 0-.466.389c-.077.194-.116.389-.039.583l1.435 4.396c-1.473 1.206-2.714 2.607-3.683 4.24l-4.615-.972a.762.762 0 0 0-.581.117c-.155.116-.31.272-.35.505l-1.86 8.792a.769.769 0 0 0 .116.583c.116.156.272.312.504.35l4.73 1.012c.117.895.35 1.79.62 2.684.272.856.621 1.712 1.048 2.529l-3.218 3.579c-.272.31-.272.817.038 1.089l6.088 5.485-.737-.467a2.34 2.34 0 0 0-3.257.74l-1.977 3.111c-1.28-.311-2.598-.544-3.916-.622l-.815-3.657c-.271-1.284-1.55-2.062-2.83-1.79l-7.6 1.673a2.343 2.343 0 0 0-1.783 2.84l.814 3.696a27.143 27.143 0 0 0-3.296 2.217l-3.102-1.984c-.543-.35-1.163-.467-1.784-.311a2.39 2.39 0 0 0-1.473 1.05l-4.188 6.613a2.357 2.357 0 0 0 .737 3.268l2.908 1.867a21.864 21.864 0 0 0-.775 4.163l-3.296.739a2.39 2.39 0 0 0-1.473 1.05 2.252 2.252 0 0 0-.31 1.79l1.667 7.624a2.397 2.397 0 0 0 1.047 1.478c.542.35 1.163.467 1.783.312l3.335-.74a18.96 18.96 0 0 0 2.442 3.346l-1.9 2.995a2.252 2.252 0 0 0-.31 1.79 2.397 2.397 0 0 0 1.047 1.478l6.592 4.201a2.34 2.34 0 0 0 3.257-.739l2.094-3.267c1.24.31 2.481.505 3.76.583l.854 3.89c.232 1.09 1.24 1.867 2.287 1.867.155 0 .35 0 .504-.039l7.6-1.672a2.39 2.39 0 0 0 1.473-1.05 2.252 2.252 0 0 0 .31-1.79l-.852-3.851c1.124-.623 2.21-1.323 3.18-2.14l3.256 2.062a2.34 2.34 0 0 0 3.257-.74l4.188-6.612a2.357 2.357 0 0 0-.737-3.268l-2.908-1.867c.426-1.362.698-2.723.814-4.124l3.296-.739a2.39 2.39 0 0 0 1.473-1.05 2.252 2.252 0 0 0 .31-1.79l-1.667-7.624a2.397 2.397 0 0 0-1.047-1.478c-.542-.35-1.163-.467-1.783-.312l-3.218.7a18.37 18.37 0 0 0-2.52-3.462l1.822-2.84a2.252 2.252 0 0 0 .31-1.789 2.397 2.397 0 0 0-1.047-1.478l-4.73-3.034a.676.676 0 0 0 .542-.273l3.141-3.5a16.51 16.51 0 0 0 5.467 1.283l1.435 4.396c.077.194.194.35.388.467.116.039.232.078.349.078.077 0 .155 0 .232-.04l8.53-2.761c.427-.117.62-.584.504-.973l-1.357-4.162a15.168 15.168 0 0 0 4.072-4.396l4.148.895a.823.823 0 0 0 .931-.584l1.861-8.791a.769.769 0 0 0-.116-.584.538.538 0 0 0-.427-.428zm-25.397 24.195a.904.904 0 0 1-.116.623l-2.132 3.345a.821.821 0 0 0 .077.973c1.163 1.245 2.171 2.606 2.947 4.123a.756.756 0 0 0 .853.39l3.761-.856a.896.896 0 0 1 .62.116c.194.117.31.311.35.506l1.667 7.625a.904.904 0 0 1-.117.622.761.761 0 0 1-.504.35l-3.838.856a.784.784 0 0 0-.62.7 19.277 19.277 0 0 1-.97 4.902c-.116.35 0 .7.31.894l3.412 2.179a.78.78 0 0 1 .233 1.128l-4.188 6.613a.775.775 0 0 1-1.124.233l-3.722-2.372c-.272-.195-.66-.156-.931.077-1.163 1.012-2.482 1.868-3.877 2.607a.76.76 0 0 0-.388.855l.97 4.435a.904.904 0 0 1-.117.623.761.761 0 0 1-.504.35l-7.6 1.672a.857.857 0 0 1-.97-.622l-.969-4.474c-.077-.35-.387-.583-.736-.622-1.551-.078-3.102-.311-4.576-.74-.077 0-.155-.038-.193-.038a.761.761 0 0 0-.66.35l-2.404 3.773a.775.775 0 0 1-1.124.234l-6.592-4.201a.764.764 0 0 1-.349-.506.904.904 0 0 1 .117-.623l2.21-3.5a.821.821 0 0 0-.078-.973 17.335 17.335 0 0 1-2.908-4.007.756.756 0 0 0-.853-.389l-3.916.856a.896.896 0 0 1-.62-.117.764.764 0 0 1-.35-.506l-1.667-7.624a.904.904 0 0 1 .117-.623.761.761 0 0 1 .504-.35l3.838-.855a.784.784 0 0 0 .62-.7c.078-1.673.427-3.346.931-4.941.117-.35-.038-.7-.31-.895l-3.373-2.178a.78.78 0 0 1-.233-1.128l4.188-6.613a.761.761 0 0 1 .504-.35.896.896 0 0 1 .62.116l3.606 2.295c.272.195.66.156.93-.078a19.693 19.693 0 0 1 3.956-2.684.76.76 0 0 0 .387-.856l-.93-4.279a.86.86 0 0 1 .62-.972l7.6-1.673a.857.857 0 0 1 .97.623l.93 4.24c.077.35.388.583.737.622 1.59.078 3.18.311 4.73.74.31.077.698-.04.853-.312l2.288-3.579a.775.775 0 0 1 1.124-.233l6.592 4.201c.232.233.349.428.387.622zm22.8-15.56l-3.917-.856a.728.728 0 0 0-.814.39 14.517 14.517 0 0 1-4.381 4.706c-.272.195-.427.545-.31.895l1.279 3.968-7.057 2.295-1.357-4.162c-.116-.312-.388-.545-.737-.545-2.055-.039-4.032-.506-5.932-1.361-.116-.04-.233-.078-.349-.078a.697.697 0 0 0-.582.272l-3.024 3.346-5.506-4.98 3.063-3.423a.708.708 0 0 0 .078-.895c-.504-.856-.892-1.79-1.202-2.723-.31-.933-.504-1.945-.62-2.917-.04-.35-.272-.623-.621-.662l-4.498-.972 1.551-7.275 4.42.934c.35.078.66-.078.853-.39 1.009-1.827 2.327-3.383 3.994-4.59a.74.74 0 0 0 .272-.855l-1.357-4.163 7.056-2.295 1.28 3.968a.843.843 0 0 0 .775.545c2.133-.078 4.304.35 6.282 1.245.31.155.659.077.892-.195l2.675-2.995 5.506 4.979-2.637 2.918a.763.763 0 0 0-.077.933c.581.934 1.047 1.984 1.396 2.996.348 1.05.542 2.14.659 3.267.038.35.271.623.62.7l3.839.817-1.513 7.158z"/>
        <path d="M414.144 268.61a6.863 6.863 0 0 0-4.963 1.4c-1.512 1.207-2.482 3.035-2.56 4.98-.038.428.31.778.737.817a.806.806 0 0 0 .815-.739c.077-1.517.775-2.918 1.977-3.851 2.249-1.79 5.506-1.4 7.29.856a5.209 5.209 0 0 1 1.047 4.045c-.078.428.232.817.659.895h.116c.388 0 .698-.272.776-.661a6.721 6.721 0 0 0-1.358-5.252 6.753 6.753 0 0 0-4.536-2.49zM104.457 43.491h.077c5.7 0 10.392-4.629 10.43-10.386.04-2.801-1.046-5.408-2.985-7.43-1.939-1.984-4.575-3.113-7.328-3.113h-.078c-2.753 0-5.35 1.05-7.29 2.996a10.322 10.322 0 0 0-3.101 7.352c-.078 5.796 4.536 10.542 10.275 10.581zM98.33 26.686c1.667-1.634 3.877-2.567 6.203-2.567h.078c2.365 0 4.575.972 6.243 2.645a8.934 8.934 0 0 1 2.559 6.302c-.04 4.862-3.994 8.83-8.88 8.83h-.077c-4.886-.039-8.84-4.045-8.802-8.947.039-2.373 1.008-4.59 2.676-6.263z"/>
        <path d="M83.79 38.473l2.87.039c.349 1.09.814 2.14 1.357 3.15l-2.094 2.063c-.427.389-.62.933-.62 1.517 0 .583.232 1.128.62 1.517l4.692 4.785c.814.855 2.17.855 3.024.039l2.326-2.296c.93.467 1.9.856 2.908 1.167l-.038 3.346c0 .583.232 1.128.62 1.517s.93.622 1.512.622l6.708.04c.582 0 1.086-.234 1.512-.623.388-.39.62-.934.62-1.517l.04-3.307c1.008-.311 2.016-.661 2.946-1.128l2.288 2.295c.814.856 2.171.856 3.024.04l4.808-4.669c.388-.389.62-.934.62-1.517 0-.584-.232-1.128-.62-1.517l-2.016-2.062c.582-1.011 1.047-2.1 1.435-3.19l2.791.04c.543 0 1.125-.234 1.513-.623.426-.39.62-.934.62-1.517l.039-6.73c0-.584-.233-1.128-.62-1.517a2.137 2.137 0 0 0-1.513-.623l-2.753-.039a17.259 17.259 0 0 0-1.396-3.267l2.017-1.984c.853-.817.853-2.179.038-3.035l-4.691-4.784c-.815-.856-2.172-.856-3.025-.04l-2.21 2.18c-.97-.507-2.016-.896-3.063-1.246l.039-3.15c0-.584-.233-1.129-.62-1.518a2.137 2.137 0 0 0-1.513-.622l-6.708-.04c-1.202 0-2.132.934-2.17 2.14l-.04 3.151c-1.047.312-2.055.7-3.063 1.206l-2.171-2.217c-.814-.856-2.172-.856-3.025-.039l-4.769 4.707c-.426.389-.62.934-.62 1.517 0 .584.233 1.128.62 1.517l2.016 2.062a16.586 16.586 0 0 0-1.395 3.19l-2.83-.039a2.13 2.13 0 0 0-2.133 2.14l-.04 6.73c0 1.166.97 2.139 2.133 2.139zm-.504-8.87c0-.31.272-.583.582-.583l3.412.039c.349 0 .66-.233.737-.545.387-1.361.97-2.684 1.706-3.929.194-.31.155-.7-.117-.933l-2.442-2.49a.586.586 0 0 1-.155-.428c0-.155.077-.311.193-.428l4.77-4.746c.232-.233.62-.233.814 0l2.598 2.646c.232.233.62.31.93.155a18.78 18.78 0 0 1 3.8-1.478.75.75 0 0 0 .582-.74l.039-3.773c0-.31.271-.583.581-.583l6.708.039c.155 0 .31.078.427.194a.586.586 0 0 1 .155.428l-.04 3.735c0 .35.234.661.582.739 1.319.35 2.598.856 3.8 1.517.31.156.66.117.93-.117l2.599-2.567c.232-.234.62-.234.814 0l4.692 4.785c.232.233.232.622 0 .817l-2.443 2.411a.72.72 0 0 0-.116.934 15.106 15.106 0 0 1 1.667 4.007c.077.35.388.583.737.583l3.334.04c.155 0 .31.077.427.194a.586.586 0 0 1 .155.428l-.04 6.73a.626.626 0 0 1-.193.427.582.582 0 0 1-.426.156l-3.374-.039c-.349 0-.659.234-.736.545a17.54 17.54 0 0 1-1.745 3.89.773.773 0 0 0 .116.972l2.443 2.49a.586.586 0 0 1 .155.428.626.626 0 0 1-.194.428l-4.77 4.707c-.232.233-.62.233-.813 0l-2.676-2.723c-.232-.234-.62-.311-.892-.156a15.307 15.307 0 0 1-3.722 1.4.75.75 0 0 0-.582.74l-.038 3.929a.626.626 0 0 1-.194.428.582.582 0 0 1-.427.155l-6.708-.039a.622.622 0 0 1-.426-.194.586.586 0 0 1-.155-.428l.039-3.93a.75.75 0 0 0-.582-.738c-1.28-.35-2.52-.856-3.684-1.478-.116-.078-.232-.078-.387-.078a.764.764 0 0 0-.543.233l-2.714 2.684c-.233.234-.62.234-.815 0L86.97 45.71a.586.586 0 0 1-.155-.428c0-.156.077-.312.194-.428l2.52-2.49a.72.72 0 0 0 .116-.934c-.736-1.206-1.28-2.528-1.667-3.89-.078-.35-.388-.544-.737-.583l-3.45-.04a.597.597 0 0 1-.582-.583l.077-6.73zM141.757 23.496h.04c1.55 0 2.985-.583 4.07-1.673a5.717 5.717 0 0 0 1.745-4.123 5.962 5.962 0 0 0-1.667-4.162 5.68 5.68 0 0 0-4.11-1.751h-.039c-1.55 0-2.985.583-4.071 1.673a5.717 5.717 0 0 0-1.745 4.123c-.039 3.268 2.56 5.913 5.777 5.913zm-2.985-8.908c.814-.778 1.86-1.245 2.985-1.245h.04c1.124 0 2.21.467 3.023 1.284a4.274 4.274 0 0 1 1.241 3.034 4.312 4.312 0 0 1-1.28 3.034c-.814.778-1.86 1.245-2.985 1.245h-.039c-2.365 0-4.265-1.945-4.265-4.318.039-1.128.465-2.217 1.28-3.034z"/>
        <path d="M125.085 21.901l3.683.04c.504 1.594 1.357 3.111 2.404 4.434l-1.822 3.112c-.117.194-.117.389-.078.583a.724.724 0 0 0 .35.467l6.63 3.93c.193.116.387.116.581.077a.723.723 0 0 0 .465-.35l1.745-2.996c.853.156 1.706.273 2.598.273.853 0 1.745-.078 2.598-.234l1.706 3.035a.692.692 0 0 0 .465.35c.078 0 .155.039.194.039a.746.746 0 0 0 .388-.117l6.708-3.812c.387-.195.504-.7.31-1.05l-1.784-3.113a13.692 13.692 0 0 0 2.482-4.396l3.683.04a.764.764 0 0 0 .543-.234.77.77 0 0 0 .233-.545l.039-7.74a.779.779 0 0 0-.776-.779l-3.877-.039a13.185 13.185 0 0 0-2.404-4.084l2.016-3.424c.116-.194.116-.389.078-.583a.724.724 0 0 0-.35-.467l-6.63-3.929a.75.75 0 0 0-1.047.272l-2.055 3.54a15.132 15.132 0 0 0-2.287-.194c-.776 0-1.551.039-2.288.194L137.57.661c-.194-.389-.698-.505-1.047-.31l-6.708 3.811a.694.694 0 0 0-.349.467c-.039.195-.039.428.078.584l1.977 3.462a14.032 14.032 0 0 0-2.482 4.046l-3.877-.04a.764.764 0 0 0-.543.234.77.77 0 0 0-.232.545l-.04 7.741a.77.77 0 0 0 .233.545c.117.077.31.155.505.155zm.814-7.741l3.645.039c.31 0 .62-.195.736-.506a11.918 11.918 0 0 1 2.714-4.435c.233-.233.272-.622.117-.933l-1.861-3.268 5.35-3.034 1.9 3.345c.155.312.504.428.815.39.814-.156 1.667-.273 2.52-.234.853 0 1.706.117 2.52.272.31.078.66-.078.853-.35l1.939-3.345 5.312 3.112-1.9 3.267a.83.83 0 0 0 .116.934 11.887 11.887 0 0 1 2.637 4.474c.116.31.388.544.737.544l3.644.04-.038 6.184-3.49-.039c-.349 0-.66.234-.737.545a12.184 12.184 0 0 1-2.675 4.785.77.77 0 0 0-.116.895l1.667 2.917-5.351 2.996-1.628-2.84c-.156-.234-.388-.39-.66-.39h-.155c-.93.195-1.86.312-2.791.312-.931 0-1.862-.117-2.792-.35-.35-.078-.698.078-.853.35l-1.667 2.84-5.312-3.112 1.706-2.918a.832.832 0 0 0-.078-.895c-1.202-1.361-2.133-3.034-2.598-4.823a.748.748 0 0 0-.737-.584l-3.49-.039V14.16zM100.657 30.732c.853-.934 2.055-1.479 3.296-1.479 1.163 0 2.249.467 3.063 1.323a4.23 4.23 0 0 1 1.24 3.112c0 1.206-.542 2.373-1.434 3.229a.754.754 0 0 0-.039 1.09c.155.155.35.271.582.271a.736.736 0 0 0 .504-.194 5.848 5.848 0 0 0 1.939-4.357c0-1.595-.582-3.073-1.706-4.201a5.856 5.856 0 0 0-4.188-1.75c-1.706 0-3.335.7-4.459 2.022-.271.311-.271.817.078 1.09.387.194.853.155 1.124-.156zM151.257 72.317c-.543.933-1.202 1.283-1.667 1.4v-2.879c0-.894-.698-1.594-1.59-1.594h-8.802c-.892 0-1.59.7-1.59 1.594v21.435c0 .895.698 1.595 1.59 1.595H148c.892 0 1.59-.7 1.59-1.595v-4.124c.426.195.969.623 1.124 1.595.388 2.295 2.21 3.073 3.529 3.073h18.882c.078 0 .155 0 .233-.038 1.784-.273 3.18-1.829 3.18-3.696 0-.778-.233-1.478-.62-2.062a3.694 3.694 0 0 0 2.326-3.423c0-.7-.194-1.323-.505-1.867 1.551-.467 2.676-1.906 2.676-3.58 0-.66-.155-1.283-.465-1.828h8.18a3.54 3.54 0 1 0 .039-7.08h-.232-22.489l1.978-2.022.038-.04c1.668-1.944.737-4.24.04-5.212 0 0 0-.039-.04-.039-.775-.933-1.706-1.478-2.753-1.556-1.744-.155-3.101.934-3.257 1.05-.038.04-.077.04-.077.078l-9.965 10.62c-.078.078-.116.156-.155.195zm-11.749-1.09h4.653v20.774h-4.653V71.227zm8.143 20.735h-1.9V71.189h1.9v20.773zm5.234-18.556l9.849-10.503c1.667-1.323 2.908-.04 3.18.272.155.233 1.046 1.556.038 2.723l-3.528 3.657a.958.958 0 0 0-.194 1.05.98.98 0 0 0 .892.584h25.009c.853 0 1.59.7 1.59 1.595 0 .894-.698 1.594-1.59 1.594H170.14a.962.962 0 0 0-.97.973c0 .545.427.972.97.972h6.514c1.008 0 1.822.817 1.822 1.829a1.823 1.823 0 0 1-1.822 1.828h-8.259a.962.962 0 0 0-.97.973c0 .544.427.972.97.972h6.204c.93 0 1.706.778 1.706 1.712 0 .933-.776 1.711-1.706 1.711h-7.406a.962.962 0 0 0-.97.973c0 .545.427.973.97.973h5.583c1.009 0 1.823.816 1.823 1.828a1.78 1.78 0 0 1-1.629 1.79h-18.572c-.35.038-1.551.038-1.784-1.44-.388-2.217-1.939-3.073-3.063-3.307V75.701c.892-.117 2.288-.583 3.334-2.295zM194.49 72.822c0 .545.426.973.97.973h43.775c.543 0 .97-.428.97-.973a.962.962 0 0 0-.97-.972h-43.776a.962.962 0 0 0-.97.972z"/>
        <path d="M182.78 82.976c.31 0 .62-.156.814-.467l2.017-3.268c.271-.467.155-1.05-.31-1.323-.466-.272-1.047-.155-1.319.312l-2.016 3.267c-.272.467-.155 1.05.31 1.323.155.078.31.156.504.156zM194.8 62.67c-.465-.273-1.047-.156-1.318.31l-2.017 3.23c-.271.466-.155 1.05.31 1.322a.85.85 0 0 0 .505.156c.31 0 .62-.156.814-.467l2.016-3.23c.272-.427.117-1.05-.31-1.322zM194.955 69.983l3.296-1.906a.733.733 0 0 0 .271-1.05.728.728 0 0 0-1.047-.273l-3.295 1.906a.733.733 0 0 0-.272 1.05c.155.234.388.39.66.39a.746.746 0 0 0 .387-.117zM182.354 62.047a.961.961 0 0 0-.35 1.323l1.9 3.345c.194.311.505.506.854.506.155 0 .31-.04.465-.117a.961.961 0 0 0 .349-1.323l-1.9-3.345a1.003 1.003 0 0 0-1.318-.39zM191.116 79.358l1.9 3.306c.194.312.504.506.853.506.156 0 .31-.039.466-.117a.961.961 0 0 0 .349-1.322l-1.9-3.307a.955.955 0 0 0-1.319-.35c-.465.233-.62.817-.349 1.284zM188.402 60.724a.962.962 0 0 0-.969.973l.039 3.851c0 .545.426.972.97.972.542 0 .968-.427.968-.972l-.038-3.851a.986.986 0 0 0-.97-.973zM188.596 84.337c.543 0 .97-.428.97-.972l-.04-3.813a.962.962 0 0 0-.969-.972.962.962 0 0 0-.969.972l.039 3.813c0 .544.426.972.97.972zM193.753 75.818a.961.961 0 0 0 .35 1.322l3.295 1.945c.155.078.31.117.504.117.349 0 .66-.155.853-.467a.961.961 0 0 0-.349-1.322l-3.296-1.945c-.504-.273-1.085-.117-1.357.35z"/>
        <ellipse cx="242.77" cy="286.345" rx="2.676" ry="2.684" transform="rotate(-9.218 242.77 286.345)"/>
        <path d="M230.2 264.137c.194 0 .388-.078.582-.195l31.95-23.418c.426-.311.543-.934.194-1.362-.31-.427-.93-.544-1.357-.194l-31.95 23.418c-.427.312-.543.934-.194 1.362a.904.904 0 0 0 .776.389zM255.83 255.15c.194.234.465.39.776.39.193 0 .426-.078.581-.195l10.547-8.013c.426-.312.504-.934.194-1.362-.31-.428-.931-.506-1.358-.194l-10.546 8.013c-.427.311-.504.934-.194 1.362zM162.967 106.55v31.665h-3.18a.962.962 0 0 0-.97.972v.078c0 2.334 1.9 4.24 4.227 4.24h51.57c2.326 0 4.226-1.906 4.226-4.24v-.078a.962.962 0 0 0-.97-.972h-3.373v-31.666a3.133 3.133 0 0 0-3.14-3.15h-45.25c-1.744 0-3.14 1.4-3.14 3.15zm51.608 35.01h-51.57c-.93 0-1.744-.583-2.093-1.4h55.756c-.31.817-1.124 1.4-2.093 1.4zm-2.055-35.01v31.665h-47.615v-31.666a1.21 1.21 0 0 1 1.202-1.205h45.21c.66 0 1.203.544 1.203 1.205z"/>
        <path d="M173.358 135.18a3.381 3.381 0 0 0 3.373-3.384c0-.817-.31-1.556-.775-2.178l4.653-5.835a3.15 3.15 0 0 0 1.202.233 3.339 3.339 0 0 0 2.675-1.323l4.963 2.879c-.039.194-.039.35-.039.545a3.381 3.381 0 0 0 3.374 3.384 3.381 3.381 0 0 0 3.373-3.384 3.356 3.356 0 0 0-1.124-2.529l6.514-6.69a3.15 3.15 0 0 0 1.202.232 3.381 3.381 0 0 0 3.373-3.384 3.381 3.381 0 0 0-3.373-3.384 3.381 3.381 0 0 0-2.753 5.33l-6.902 7.08h-.349a3.27 3.27 0 0 0-2.443 1.088l-5.118-2.956v-.234a3.381 3.381 0 0 0-3.373-3.384 3.381 3.381 0 0 0-2.753 5.33l-4.77 5.951c-.31-.077-.62-.155-.969-.155a3.381 3.381 0 0 0-3.373 3.384c.039 1.867 1.55 3.384 3.412 3.384zm29.352-22.834a1.46 1.46 0 0 1 1.435 1.439c0 .778-.66 1.44-1.435 1.44a1.46 1.46 0 0 1-1.435-1.44c0-.778.66-1.44 1.435-1.44zm-9.965 12.37a1.46 1.46 0 0 1 1.435 1.44c0 .778-.66 1.439-1.435 1.439a1.46 1.46 0 0 1-1.435-1.44c0-.778.66-1.439 1.435-1.439zm-10.934-5.485a1.46 1.46 0 0 1 1.434 1.44c0 .777-.659 1.439-1.434 1.439a1.46 1.46 0 0 1-1.435-1.44c0-.778.66-1.439 1.435-1.439zm-8.453 11.126a1.46 1.46 0 0 1 1.435 1.44c0 .777-.66 1.438-1.435 1.438a1.46 1.46 0 0 1-1.435-1.439c0-.778.66-1.44 1.435-1.44zM419.727 86.516v42.946c0 2.373 1.939 4.318 4.304 4.318h20.667c2.365 0 4.304-1.945 4.304-4.318V86.516c0-2.373-1.94-4.318-4.304-4.318H424.03c-2.404.038-4.304 1.945-4.304 4.318zm27.297 0v42.946c0 1.284-1.047 2.373-2.365 2.373h-20.667a2.378 2.378 0 0 1-2.365-2.373V86.516c0-1.284 1.047-2.373 2.365-2.373h20.667c1.28.038 2.365 1.089 2.365 2.373z"/>
        <path d="M434.384 129.89a2.072 2.072 0 0 0 2.055-2.062c0-1.128-.93-2.062-2.055-2.062a2.072 2.072 0 0 0-2.055 2.062c0 1.128.93 2.062 2.055 2.062zM35.09 256.434H14.424c-2.365 0-4.304 1.946-4.304 4.318V303.7c0 2.373 1.939 4.318 4.304 4.318H35.09c2.366 0 4.304-1.945 4.304-4.318v-42.947c-.039-2.372-1.938-4.318-4.304-4.318zm2.327 47.265c0 1.284-1.047 2.373-2.365 2.373H14.424a2.378 2.378 0 0 1-2.365-2.373v-42.947c0-1.283 1.047-2.372 2.365-2.372H35.09c1.28 0 2.366 1.05 2.366 2.372V303.7h-.04z"/>
        <ellipse cx="24.815" cy="302.065" rx="2.055" ry="2.062"/>
        <path d="M368.08 210.765c-1.473 0-2.675 1.245-2.675 2.723v9.103c0 1.517 1.202 2.723 2.675 2.723h5.313c1.473 0 2.675-1.245 2.675-2.723v-9.103c0-1.517-1.202-2.723-2.675-2.723h-5.313zm6.204 2.723v9.103a.879.879 0 0 1-.891.894h-5.313a.903.903 0 0 1-.891-.894v-9.103c0-.506.387-.895.891-.895h5.313c.504 0 .891.39.891.895z"/>
        <path d="M372.5 220.801a.879.879 0 0 0-.891.895c0 .506.388.895.892.895a.879.879 0 0 0 .892-.895.879.879 0 0 0-.892-.895zM372.5 217.145a.879.879 0 0 0-.891.894c0 .506.388.895.892.895a.879.879 0 0 0 .892-.895.879.879 0 0 0-.892-.894zM368.972 218.973a.879.879 0 0 0 .892-.895.879.879 0 0 0-.892-.894.879.879 0 0 0-.892.894c0 .467.388.895.892.895zM370.756 217.145a.879.879 0 0 0 .892-.895.879.879 0 0 0-.892-.895.879.879 0 0 0-.892.895c0 .467.388.895.892.895zM372.5 213.488a.879.879 0 0 0-.891.895c0 .505.388.894.892.894a.879.879 0 0 0 .892-.894.903.903 0 0 0-.892-.895zM368.972 215.316a.879.879 0 0 0 .892-.894.879.879 0 0 0-.892-.895.879.879 0 0 0-.892.895c0 .466.388.894.892.894z"/>
        <ellipse cx="370.756" cy="219.868" rx="1" ry="1"/>
        <path d="M368.972 220.801a.879.879 0 0 0-.892.895c0 .506.388.895.892.895a.879.879 0 0 0 .892-.895.879.879 0 0 0-.892-.895zM352.144 230.838h-5.312c-1.473 0-2.675 1.245-2.675 2.723v9.103c0 1.517 1.202 2.723 2.675 2.723h5.312c1.474 0 2.676-1.245 2.676-2.723v-9.103c0-1.517-1.202-2.723-2.676-2.723zm.892 11.826a.879.879 0 0 1-.892.894h-5.312a.903.903 0 0 1-.891-.894v-9.103c0-.506.387-.895.891-.895h5.312c.504 0 .892.428.892.895v9.103z"/>
        <path d="M371.648 242.664v-12.37l2.908 2.994c.349.35.892.35 1.24 0 .156-.194.272-.427.272-.66a.913.913 0 0 0-.272-.662l-4.42-4.552a.864.864 0 0 0-1.24 0l-4.42 4.552a.918.918 0 0 0 0 1.284c.348.35.891.35 1.24 0l2.908-2.996v12.41a.879.879 0 0 1-.892.894h-6.204c-.969 0-1.783-.817-1.783-1.828v-27.347c0-2.023-1.59-3.657-3.529-3.657h-6.203c-1.474 0-2.676 1.245-2.676 2.723v5.096l-4.149 4.28a.918.918 0 0 0 0 1.283l4.42 4.551c.35.35.892.35 1.241 0l4.42-4.551c.156-.195.272-.428.272-.661a.913.913 0 0 0-.271-.662l-4.15-4.279v-5.096c0-.506.389-.895.893-.895h6.203c.97 0 1.784.817 1.784 1.829v27.347c0 2.023 1.59 3.657 3.528 3.657h6.204c1.474.078 2.676-1.167 2.676-2.684zm-22.14-15.872l-3.18-3.268 3.18-3.267 3.18 3.267-3.18 3.268zM426.435 160.077c2.56 0 4.73-1.867 5.157-4.318h4.343l5.428 8.17a.96.96 0 0 0 .814.427h4.304c.543 0 .97-.428.97-.972a.962.962 0 0 0-.97-.973h-3.76l-5.43-8.17a.96.96 0 0 0-.813-.427h-4.847c-.465-2.45-2.598-4.318-5.157-4.318-2.908 0-5.273 2.373-5.273 5.29 0 2.918 2.326 5.291 5.234 5.291zm0-8.636a3.34 3.34 0 0 1 3.335 3.346 3.315 3.315 0 0 1-3.335 3.345 3.34 3.34 0 0 1-3.334-3.345 3.34 3.34 0 0 1 3.334-3.346zM426.435 175.87c2.56 0 4.73-1.866 5.157-4.317h23.458c.543 0 .97-.428.97-.973a.962.962 0 0 0-.97-.972h-23.458c-.465-2.451-2.598-4.318-5.157-4.318a5.214 5.214 0 0 0-3.722 1.556 5.248 5.248 0 0 0-1.551 3.734c0 2.918 2.365 5.29 5.273 5.29zm-2.365-7.624a3.338 3.338 0 0 1 2.365-.972 3.34 3.34 0 0 1 3.335 3.345 3.34 3.34 0 0 1-3.335 3.346 3.34 3.34 0 0 1-3.334-3.346c0-.933.349-1.75.969-2.373zM443.534 147.901a5.298 5.298 0 0 0 1.047-3.15c0-2.918-2.365-5.291-5.273-5.291-2.908 0-5.273 2.373-5.273 5.29 0 2.918 2.365 5.29 5.273 5.29a5.09 5.09 0 0 0 2.753-.816l5.002 7.546a.96.96 0 0 0 .814.428h7.173c.543 0 .97-.428.97-.972a.962.962 0 0 0-.97-.973h-6.63l-4.886-7.352zm-7.56-3.15a3.34 3.34 0 0 1 3.334-3.346 3.34 3.34 0 0 1 3.335 3.345c0 .7-.233 1.362-.62 1.906a1.159 1.159 0 0 0-.388.156.955.955 0 0 0-.427.661 3.266 3.266 0 0 1-1.9.623c-1.822 0-3.334-1.518-3.334-3.346zM455.05 185.907c.543 0 .97-.428.97-.972a.962.962 0 0 0-.97-.973h-7.173c-.31 0-.62.156-.814.428l-5.002 7.547a5.158 5.158 0 0 0-2.753-.778c-2.908 0-5.273 2.373-5.273 5.29 0 2.918 2.365 5.29 5.273 5.29 2.908 0 5.273-2.372 5.273-5.29a5.298 5.298 0 0 0-1.047-3.15l4.886-7.353h6.63v-.039zm-15.742 13.849a3.34 3.34 0 0 1-3.334-3.346 3.315 3.315 0 0 1 3.334-3.345c.698 0 1.357.233 1.9.622a.955.955 0 0 0 .427.662c.116.078.271.116.387.155a3.29 3.29 0 0 1 .62 1.906 3.34 3.34 0 0 1-3.334 3.346z"/>
        <path d="M486.34 169.958l-16.4-11.826c-.31-.195-.698-.233-1.009-.078-.31.156-.542.506-.542.856v3.501H455.05a.962.962 0 0 0-.969.973c0 .544.426.972.97.972h14.307c.543 0 .97-.428.97-.972v-2.568l13.725 9.92-13.726 9.336v-2.295a.962.962 0 0 0-.97-.973h-27.18c-.31 0-.62.156-.814.428l-5.428 8.17h-4.343c-.194-1.05-.698-1.984-1.435-2.762a5.214 5.214 0 0 0-3.722-1.556c-2.908 0-5.273 2.372-5.273 5.29s2.365 5.29 5.273 5.29c2.56 0 4.73-1.867 5.157-4.317h4.847c.31 0 .62-.156.814-.428l5.428-8.17h25.708v3.19c0 .35.193.7.504.856.31.156.698.156 1.008-.039l16.401-11.164c.271-.195.427-.467.427-.778a.914.914 0 0 0-.388-.856zm-59.905 19.762a3.34 3.34 0 0 1-3.334-3.346 3.315 3.315 0 0 1 3.334-3.345c.892 0 1.706.35 2.365.972.62.622.97 1.478.97 2.373 0 1.828-1.512 3.346-3.335 3.346z"/>
        <path d="M466.489 171.553c.542 0 .969-.428.969-.973a.962.962 0 0 0-.97-.972h-2.869a.962.962 0 0 0-.969.972c0 .545.427.973.97.973h2.869zM460.789 171.553c.543 0 .97-.428.97-.973a.962.962 0 0 0-.97-.972h-2.87a.962.962 0 0 0-.969.972c0 .545.427.973.97.973h2.869zM457.92 157.198h2.869c.543 0 .97-.428.97-.972a.962.962 0 0 0-.97-.973h-2.87a.962.962 0 0 0-.969.973c0 .544.427.972.97.972zM460.789 183.962h-2.87a.962.962 0 0 0-.969.973c0 .544.427.972.97.972h2.869c.543 0 .97-.428.97-.972a.962.962 0 0 0-.97-.973zM452.181 162.45h-2.87a.962.962 0 0 0-.969.973c0 .544.427.972.97.972h2.87c.542 0 .968-.428.968-.972a.962.962 0 0 0-.969-.973zM232.76 159.844h-5.351a.962.962 0 0 0-.97.972c0 .545.427.973.97.973h5.35c.543 0 .97-.428.97-.973a.962.962 0 0 0-.97-.972zM232.76 165.212h-5.351a.962.962 0 0 0-.97.972c0 .545.427.973.97.973h5.35c.543 0 .97-.428.97-.973a.962.962 0 0 0-.97-.972zM232.76 170.58h-5.351a.962.962 0 0 0-.97.973c0 .544.427.972.97.972h5.35c.543 0 .97-.428.97-.972a.962.962 0 0 0-.97-.973zM232.76 175.949h-5.351a.962.962 0 0 0-.97.972c0 .545.427.973.97.973h5.35c.543 0 .97-.428.97-.973a.962.962 0 0 0-.97-.972zM232.76 181.356h-5.351a.962.962 0 0 0-.97.972c0 .545.427.973.97.973h5.35c.543 0 .97-.428.97-.973a.962.962 0 0 0-.97-.972zM278.862 159.844h-5.351a.962.962 0 0 0-.97.972c0 .545.427.973.97.973h5.35c.544 0 .97-.428.97-.973a.962.962 0 0 0-.97-.972zM278.862 165.212h-5.351a.962.962 0 0 0-.97.972c0 .545.427.973.97.973h5.35c.544 0 .97-.428.97-.973a.962.962 0 0 0-.97-.972zM278.862 170.58h-5.351a.962.962 0 0 0-.97.973c0 .544.427.972.97.972h5.35c.544 0 .97-.428.97-.972a.962.962 0 0 0-.97-.973zM278.862 175.949h-5.351a.962.962 0 0 0-.97.972c0 .545.427.973.97.973h5.35c.544 0 .97-.428.97-.973a.962.962 0 0 0-.97-.972zM278.862 181.356h-5.351a.962.962 0 0 0-.97.972c0 .545.427.973.97.973h5.35c.544 0 .97-.428.97-.973a.962.962 0 0 0-.97-.972zM264.826 151.13v-5.368a.962.962 0 0 0-.97-.973.962.962 0 0 0-.97.973v5.368c0 .544.427.972.97.972.543 0 .97-.428.97-.972zM259.436 151.13v-5.368a.962.962 0 0 0-.97-.973.962.962 0 0 0-.969.973v5.368c0 .544.427.972.97.972.543 0 .97-.428.97-.972zM252.147 145.723v5.368c0 .545.426.972.969.972.543 0 .97-.427.97-.972v-5.368a.962.962 0 0 0-.97-.973.987.987 0 0 0-.97.973zM246.796 145.723v5.368c0 .545.426.972.97.972.542 0 .968-.427.968-.972v-5.368a.962.962 0 0 0-.969-.973.987.987 0 0 0-.97.973zM241.445 145.723v5.368c0 .545.426.972.97.972.542 0 .969-.427.969-.972v-5.368a.962.962 0 0 0-.97-.973.987.987 0 0 0-.969.973zM262.887 191.976v5.368c0 .545.426.973.97.973.542 0 .969-.428.969-.973v-5.368a.962.962 0 0 0-.97-.973.987.987 0 0 0-.97.973zM257.497 191.976v5.368c0 .545.427.973.97.973.543 0 .97-.428.97-.973v-5.368a.962.962 0 0 0-.97-.973.987.987 0 0 0-.97.973zM252.147 191.976v5.368c0 .545.426.973.969.973.543 0 .97-.428.97-.973v-5.368a.962.962 0 0 0-.97-.973.987.987 0 0 0-.97.973zM246.796 191.976v5.368c0 .545.426.973.97.973.542 0 .968-.428.968-.973v-5.368a.962.962 0 0 0-.969-.973.987.987 0 0 0-.97.973zM241.445 191.976v5.368c0 .545.426.973.97.973.542 0 .969-.428.969-.973v-5.368a.962.962 0 0 0-.97-.973.987.987 0 0 0-.969.973zM246.68 178.983h12.872c.543 0 .97-.428.97-.973v-12.915a.962.962 0 0 0-.97-.972H246.68a.962.962 0 0 0-.969.972v12.915c0 .545.465.973.97.973zm.969-12.915h10.934v10.97h-10.934v-10.97zM242.414 169.297c.543 0 .97-.428.97-.973v-2.14a.962.962 0 0 0-.97-.972.962.962 0 0 0-.969.972v2.14c0 .545.426.973.97.973zM242.414 177.894c.543 0 .97-.428.97-.973v-2.14a.962.962 0 0 0-.97-.972.962.962 0 0 0-.969.973v2.14c0 .544.426.972.97.972zM242.414 173.615c.543 0 .97-.428.97-.973v-2.14a.962.962 0 0 0-.97-.972.962.962 0 0 0-.969.972v2.14c0 .506.426.973.97.973zM263.856 169.297c.543 0 .97-.428.97-.973v-2.14a.962.962 0 0 0-.97-.972.962.962 0 0 0-.97.972v2.14c0 .545.427.973.97.973zM263.856 177.894c.543 0 .97-.428.97-.973v-2.14a.962.962 0 0 0-.97-.972.962.962 0 0 0-.97.973v2.14c0 .544.427.972.97.972zM263.856 173.615c.543 0 .97-.428.97-.973v-2.14a.962.962 0 0 0-.97-.972.962.962 0 0 0-.97.972v2.14c0 .506.427.973.97.973z"/>
        <path d="M271.262 188.747V154.32a.962.962 0 0 0-.97-.973h-34.314a.962.962 0 0 0-.97.973v34.194l-75.802 55.667v-5.096c1.628-.428 2.869-1.945 2.869-3.696 0-2.1-1.706-3.851-3.839-3.851a3.829 3.829 0 0 0-3.838 3.851 3.794 3.794 0 0 0 2.869 3.696v5.485c0 .778-.427 1.711-.97 2.061-.038 0-.038.04-.077.04l-6.708 5.173c-1.202.817-1.822 2.529-1.822 3.774v5.68c-1.629.427-2.87 1.944-2.87 3.695 0 2.1 1.707 3.85 3.84 3.85a3.854 3.854 0 0 0 3.838-3.85 3.794 3.794 0 0 0-2.87-3.696v-5.68c0-.777.466-1.828.97-2.178.039 0 .039-.039.077-.039l6.708-5.174c.427-.272.737-.66 1.008-1.089l.04-.039 78.167-57.378h33.617c.582 0 1.047-.428 1.047-.973zM150.598 265.07c0 1.05-.853 1.907-1.9 1.907a1.906 1.906 0 0 1 0-3.813c1.047 0 1.9.856 1.9 1.906zm5.738-29.68c0-1.051.853-1.907 1.9-1.907a1.906 1.906 0 0 1 0 3.812c-1.047 0-1.9-.856-1.9-1.906zm112.987-47.616h-32.376v-32.482h32.376v32.482z"/>
        <path d="M247.765 161.789h2.133c.543 0 .969-.428.969-.973a.962.962 0 0 0-.97-.972h-2.132a.962.962 0 0 0-.97.972c0 .545.427.973.97.973zM252.069 161.789h2.133c.542 0 .969-.428.969-.973a.962.962 0 0 0-.97-.972h-2.132a.962.962 0 0 0-.97.972c0 .545.427.973.97.973zM256.334 161.789h2.133c.543 0 .97-.428.97-.973a.962.962 0 0 0-.97-.972h-2.133a.962.962 0 0 0-.97.972c0 .545.427.973.97.973zM249.898 181.356h-2.133a.962.962 0 0 0-.97.972c0 .545.427.973.97.973h2.133c.543 0 .969-.428.969-.973a.962.962 0 0 0-.97-.972zM254.202 181.356h-2.133a.962.962 0 0 0-.97.972c0 .545.427.973.97.973h2.133c.542 0 .969-.428.969-.973a.962.962 0 0 0-.97-.972zM258.467 181.356h-2.133a.962.962 0 0 0-.97.972c0 .545.427.973.97.973h2.133c.543 0 .97-.428.97-.973a.962.962 0 0 0-.97-.972zM180.919 52.555c.388.39.892.622 1.473.622h38.076a2.072 2.072 0 0 0 2.055-2.061V16.883c0-1.128-.93-2.062-2.055-2.062h-48.467a2.072 2.072 0 0 0-2.055 2.062v23.846c0 .545.233 1.09.62 1.478l10.353 10.348zm-9.034-35.75c0-.078.077-.117.116-.117h48.467c.078 0 .117.078.117.117v34.233c0 .078-.078.117-.117.117h-38.076c-.038 0-.077 0-.077-.04L171.962 40.73c-.039-.039-.039-.078-.039-.078V16.805h-.038z"/>
        <path d="M189.643 45.397h22.024c1.744 0 3.18-1.439 3.18-3.19V25.675c0-1.751-1.436-3.19-3.18-3.19h-22.024c-1.745 0-3.18 1.439-3.18 3.19v16.571c0 1.75 1.435 3.151 3.18 3.151zm5.661-8.558h-6.863v-4.668h6.863v4.668zm-6.902 5.407v-3.462h6.863v4.668h-5.622c-.66 0-1.24-.544-1.24-1.206zm23.265 1.206h-14.463V24.391h6.863v13.382c0 .544.426.972.97.972h7.832v3.462c.038.7-.504 1.245-1.202 1.245zm1.24-6.613h-6.863v-4.668h6.863v4.668zm0-11.164v4.551h-6.863V24.43h5.623c.698 0 1.24.544 1.24 1.245zm-23.264-1.245h5.622v5.796h-6.863v-4.551c0-.7.582-1.245 1.241-1.245zM349.43 270.594c-1.938 0-3.567 1.362-3.993 3.19h-5.39c-.31 0-.62.156-.814.428l-4.033 5.913h-5.816a.962.962 0 0 0-.97.973c0 .544.427.972.97.972h6.32c.31 0 .62-.155.815-.428l4.032-5.913h4.886c.426 1.829 2.055 3.19 3.993 3.19 2.288 0 4.15-1.867 4.15-4.162s-1.862-4.163-4.15-4.163zm0 6.341a2.213 2.213 0 0 1-2.21-2.217c0-1.245.97-2.217 2.21-2.217 1.241 0 2.21.972 2.21 2.217s-.969 2.217-2.21 2.217zM349.43 293.857c-1.938 0-3.567 1.362-3.993 3.19h-2.753l-3.878-5.913a.96.96 0 0 0-.814-.428h-9.616a.962.962 0 0 0-.97.973c0 .544.427.972.97.972h9.112l3.877 5.913a.96.96 0 0 0 .815.428h3.295c.427 1.828 2.055 3.19 3.994 3.19 2.288 0 4.149-1.867 4.149-4.162-.039-2.296-1.9-4.163-4.188-4.163zm0 6.341a2.213 2.213 0 0 1-2.21-2.217c0-1.206.97-2.218 2.21-2.218 1.241 0 2.21.973 2.21 2.218 0 1.244-.969 2.217-2.21 2.217zM349.43 282.226c-1.938 0-3.567 1.361-3.993 3.19h-4.42a.962.962 0 0 0-.97.972c0 .545.426.973.97.973h4.42c.426 1.828 2.055 3.19 3.993 3.19 2.288 0 4.15-1.868 4.15-4.163s-1.862-4.162-4.15-4.162zm0 6.34a2.213 2.213 0 0 1-2.21-2.217c0-1.206.97-2.217 2.21-2.217 1.241 0 2.21.972 2.21 2.217s-.969 2.218-2.21 2.218zM342.063 303.388c-.504 0-.97.078-1.434.272l-5.157-7.235a.904.904 0 0 0-.776-.39h-12.64a.962.962 0 0 0-.97.973c0 .545.427.973.97.973h12.136l4.847 6.807a4.196 4.196 0 0 0-1.086 2.801c0 2.295 1.861 4.163 4.149 4.163 2.288 0 4.149-1.868 4.149-4.163-.039-2.373-1.9-4.201-4.188-4.201zm0 6.34a2.213 2.213 0 0 1-2.21-2.217c0-1.206.97-2.217 2.21-2.217 1.241 0 2.21.972 2.21 2.217 0 1.206-1.008 2.218-2.21 2.218z"/>
        <path d="M328.376 299.148a.962.962 0 0 0-.97.972v3.268h-22.294v-27.659h22.295v2.218c0 .544.426.972.969.972.543 0 .97-.428.97-.972v-6.38c0-2.295-1.862-4.162-4.15-4.162h-17.913c-2.288 0-4.149 1.867-4.149 4.162V308.6c0 .817.233 1.595.66 2.257h-36.37c-8.337-11.554-7.135-13.693-5.584-16.416.078-.117.116-.195.155-.312h24.583c3.722 0 6.785-3.034 6.785-6.807v-54.617c0-3.735-3.024-6.808-6.785-6.808H198.87c-3.722 0-6.785 3.035-6.785 6.808v54.578c0 3.734 3.024 6.808 6.785 6.808h24.118c2.326 2.14 3.45 4.395 3.295 6.807-.31 5.174-6.203 9.453-6.824 9.92h-57.54v-3.229c5.428-.155 10.895-1.44 10.895-4.123v-16.611c0-2.84-6.126-4.124-11.865-4.124-5.7 0-11.864 1.284-11.864 4.124v16.61c0 2.685 5.467 3.969 10.895 4.124v3.229h-30.98v-40.963c1.938-.194 3.49-1.828 3.49-3.812 0-2.1-1.707-3.851-3.84-3.851a3.854 3.854 0 0 0-3.838 3.851c0 1.4.737 2.606 1.861 3.307v21.512h-11.438v-32.25a4.156 4.156 0 0 0-1.202-2.917 4.129 4.129 0 0 0-2.908-1.206H51.414a4.129 4.129 0 0 0-2.908 1.206 4.156 4.156 0 0 0-1.202 2.918v97.913c0 1.129.465 2.179 1.202 2.918a4.129 4.129 0 0 0 2.908 1.206h59.75a4.129 4.129 0 0 0 2.909-1.206 4.156 4.156 0 0 0 1.202-2.918v-32.17h11.438v21.434c0 .311.116.622.349.817.194.194.504.35.814.35.31 0 .62-.117.815-.35.193-.195.348-.506.348-.817v-33.027h30.98v7.274c0 .545.427.973.97.973.543 0 .97-.428.97-.973v-7.274H310.5c.078 0 .194 0 .272-.039h14.462c2.288 0 4.15-1.867 4.15-4.162v-8.48a1.016 1.016 0 0 0-1.009-.934zm-129.505-71.306h87.784c2.676 0 4.847 2.179 4.847 4.863v46.409h-97.477v-46.409c0-2.645 2.17-4.863 4.846-4.863zm-4.846 59.48v-6.263h97.477v6.263c0 2.684-2.171 4.862-4.847 4.862H198.832c-2.636 0-4.807-2.178-4.807-4.862zm34.198 13.732c.155-2.451-.698-4.785-2.52-6.925h34.12c-1.705 3.307-1.9 6.575 5.158 16.572h-42.264c2.172-2.023 5.235-5.524 5.506-9.647zm-57.346-8.909c-.117.623-3.335 2.179-9.927 2.179-6.552 0-9.81-1.595-9.926-2.179v-2.917c2.25 1.167 6.165 1.712 9.926 1.712 3.723 0 7.639-.545 9.927-1.712v2.917zm-19.853 2.412c2.25 1.167 6.165 1.712 9.926 1.712 3.723 0 7.639-.545 9.927-1.712v3.268c-.117.622-3.335 2.178-9.927 2.178-6.552 0-9.81-1.594-9.926-2.178v-3.268zm9.926-9.92c6.553 0 9.771 1.596 9.927 2.18-.117.621-3.374 2.178-9.927 2.178-6.552 0-9.77-1.595-9.926-2.179.155-.583 3.374-2.178 9.926-2.178zm-9.926 18.829v-3.268c2.25 1.167 6.165 1.712 9.926 1.712 3.723 0 7.639-.545 9.927-1.712v3.268c-.117.622-3.335 2.178-9.927 2.178-6.591 0-9.81-1.595-9.926-2.178zm-38.076 53.06c0 .506-.194.934-.543 1.284-.31.311-.775.545-1.279.545H51.414c-.504 0-.93-.195-1.28-.545a1.858 1.858 0 0 1-.542-1.284v-97.913c0-.506.194-.934.543-1.284.31-.311.775-.544 1.28-.544h59.75c.504 0 .93.194 1.28.544.31.311.542.778.542 1.284V356.526h-.039zm13.765-34.505h-11.438v-28.825h11.438v28.825zm1.939-57.884a1.906 1.906 0 0 1 0 3.812 1.906 1.906 0 0 1 0-3.812zm178.631 5.213h17.914c1.202 0 2.21.972 2.21 2.217v2.217h-22.295v-2.217c0-1.206.97-2.217 2.171-2.217zm17.914 41.429h-17.914a2.213 2.213 0 0 1-2.21-2.217v-3.268h22.295v3.268a2.156 2.156 0 0 1-2.171 2.217z"/>
        <path d="M318.876 306.539h-5.273a.962.962 0 0 0-.97.972c0 .545.427.973.97.973h5.273c.543 0 .97-.428.97-.973a.962.962 0 0 0-.97-.972zM331.44 286.388a.962.962 0 0 0-.97-.972h-20.008a.962.962 0 0 0-.969.972c0 .545.427.973.97.973h20.007c.543 0 .97-.467.97-.973zM338.923 287.36c.542 0 .969-.427.969-.972a.962.962 0 0 0-.97-.972h-2.093a.962.962 0 0 0-.97.972c0 .545.427.973.97.973h2.094zM334.696 287.36c.543 0 .97-.427.97-.972a.962.962 0 0 0-.97-.972h-2.094a.962.962 0 0 0-.969.972c0 .545.427.973.97.973h2.093zM327.33 282.07c.542 0 .968-.428.968-.972a.962.962 0 0 0-.969-.973h-8.414a.962.962 0 0 0-.97.973c0 .544.427.972.97.972h8.414zM316.783 290.667a.962.962 0 0 0-.97.973c0 .544.427.972.97.972h9.5c.542 0 .969-.428.969-.972a.962.962 0 0 0-.97-.973h-9.5zM159.206 268.883v-6.808c1.628-.428 2.869-1.945 2.869-3.695 0-2.101-1.706-3.852-3.839-3.852a3.829 3.829 0 0 0-3.838 3.852 3.794 3.794 0 0 0 2.869 3.695v6.808c0 .467.349.894.814.972a.967.967 0 0 0-.814.973v1.906c0 .467.349.895.814.972a.967.967 0 0 0-.814.973v1.906c0 .545.426.973.97.973.542 0 .969-.428.969-.973v-1.945a.998.998 0 0 0-.815-.972.967.967 0 0 0 .815-.973v-1.906a.998.998 0 0 0-.815-.973c.466-.039.815-.428.815-.933zm-2.87-10.503c0-1.05.853-1.907 1.9-1.907a1.906 1.906 0 0 1 0 3.813c-1.047 0-1.9-.856-1.9-1.906zM126.79 251.689v-1.945a.962.962 0 0 0-.969-.973.962.962 0 0 0-.97.973v1.906c0 .466.35.894.815.972a.967.967 0 0 0-.814.973v1.906c0 .467.349.895.814.972a.967.967 0 0 0-.814.973v1.906c0 .545.426.973.97.973.542 0 .969-.428.969-.973v-1.906a.998.998 0 0 0-.815-.973.967.967 0 0 0 .815-.972v-1.906a.998.998 0 0 0-.815-.973c.427-.078.815-.467.815-.933zM142.998 243.053v-1.907a.962.962 0 0 0-.97-.972.962.962 0 0 0-.969.972v1.907c0 .466.35.894.815.972a.967.967 0 0 0-.815.973v1.906c0 .544.427.972.97.972.543 0 .97-.428.97-.972v-1.906a.998.998 0 0 0-.815-.973.967.967 0 0 0 .814-.972zM142.998 260.286v-1.906a.962.962 0 0 0-.97-.973.962.962 0 0 0-.969.973v1.906c0 .466.35.894.815.972a.967.967 0 0 0-.815.973v1.906c0 .467.35.895.815.972a.967.967 0 0 0-.815.973v1.906c0 .545.427.973.97.973.543 0 .97-.428.97-.973v-1.906a.998.998 0 0 0-.815-.973.967.967 0 0 0 .814-.972v-1.945a.998.998 0 0 0-.814-.973c.465-.039.814-.467.814-.933zM134.39 273.668c0 2.1 1.706 3.85 3.839 3.85a3.829 3.829 0 0 0 3.839-3.85 3.794 3.794 0 0 0-2.87-3.696v-5.018c0-.895 0-2.762-1.357-3.657l-6.281-4.24c-.504-.311-.93-1.362-.93-2.179v-7.118c1.628-.428 2.868-1.945 2.868-3.696 0-2.1-1.706-3.851-3.838-3.851a3.829 3.829 0 0 0-3.839 3.851 3.794 3.794 0 0 0 2.87 3.696v7.118c0 1.245.62 3.035 1.822 3.813l6.281 4.24c.504.311.504 1.595.504 2.062v4.979a3.82 3.82 0 0 0-2.908 3.696zm-6.669-29.643c0-1.05.853-1.906 1.9-1.906a1.906 1.906 0 0 1 0 3.812c-1.047 0-1.9-.856-1.9-1.906zm12.369 29.643c0 1.05-.853 1.906-1.9 1.906a1.906 1.906 0 0 1 0-3.813c1.047 0 1.9.895 1.9 1.907z"/>
        <path d="M134.39 252.622c0 2.1 1.706 3.851 3.839 3.851a3.829 3.829 0 0 0 3.839-3.85 3.794 3.794 0 0 0-2.87-3.696v-9.803c1.629-.428 2.87-1.945 2.87-3.696 0-2.1-1.707-3.851-3.84-3.851a3.829 3.829 0 0 0-3.838 3.851 3.794 3.794 0 0 0 2.87 3.696v9.803a3.794 3.794 0 0 0-2.87 3.695zm5.7 0c0 1.05-.853 1.906-1.9 1.906a1.906 1.906 0 0 1 0-3.812c1.047 0 1.9.856 1.9 1.906zm-3.761-17.233c0-1.05.853-1.906 1.9-1.906a1.906 1.906 0 0 1 0 3.812c-1.047 0-1.9-.856-1.9-1.906zM148.698 247.876a3.854 3.854 0 0 0 3.838-3.85 3.829 3.829 0 0 0-3.838-3.852 3.854 3.854 0 0 0-3.839 3.851 3.854 3.854 0 0 0 3.839 3.851zm0-5.757a1.906 1.906 0 0 1 0 3.812 1.906 1.906 0 0 1 0-3.812zM350.4 268.377v-19.84a.962.962 0 0 0-.97-.972.962.962 0 0 0-.97.973v19.839c0 .545.427.973.97.973.543 0 .97-.428.97-.973zM250.983 58.818h9.112l-1.202 3.851h-1.977a.962.962 0 0 0-.97.973c0 .544.427.972.97.972h2.481c.078 0 .117.04.194.04.078 0 .116 0 .194-.04h9.849c.077 0 .116.04.193.04.078 0 .117 0 .194-.04h2.482c.543 0 .97-.428.97-.972a.962.962 0 0 0-.97-.973h-1.978l-1.202-3.85h9.112c.543 0 .97-.429.97-.973V39.329a.962.962 0 0 0-.97-.973h-27.452a.962.962 0 0 0-.969.973v18.517c0 .544.427.972.97.972zm17.487 3.851h-7.56l1.201-3.85h5.157l1.202 3.85zm-16.517-22.368h25.513v16.572h-25.513V40.301zM255.248 100.714V82.198a.962.962 0 0 0-.969-.973h-27.452a.962.962 0 0 0-.97.973v18.516c0 .545.427.973.97.973h9.112l-1.202 3.851h-1.977a.962.962 0 0 0-.97.973c0 .544.427.972.97.972h2.481c.078 0 .116.039.194.039s.116 0 .194-.039h9.848c.078 0 .117.039.194.039.078 0 .117 0 .194-.039h2.482c.543 0 .97-.428.97-.972a.962.962 0 0 0-.97-.973h-1.978l-1.202-3.851h9.112c.504 0 .97-.467.97-.973zm-10.934 4.785h-7.56l1.201-3.851h5.157l1.202 3.851zm8.996-5.757h-25.513V83.17h25.513v16.572zM300.808 101.687c.543 0 .97-.428.97-.973V82.198a.962.962 0 0 0-.97-.973h-27.452a.962.962 0 0 0-.97.973v18.516c0 .545.427.973.97.973h9.112l-1.202 3.851h-1.978a.962.962 0 0 0-.97.973c0 .544.427.972.97.972h2.482c.077 0 .116.039.194.039.077 0 .116 0 .194-.039h9.848c.078 0 .116.039.194.039s.116 0 .194-.039h2.481c.543 0 .97-.428.97-.972a.962.962 0 0 0-.97-.973h-1.977l-1.202-3.851h9.112zM274.364 83.13h25.513v16.572h-25.513V83.13zm16.518 22.368h-7.561l1.202-3.851h5.157l1.202 3.851z"/>
        <path d="M242.26 79.28c.542 0 .969-.428.969-.973v-4.551h19.697v67.493c0 .545.426.973.97.973.542 0 .968-.428.968-.973V73.795h19.542v4.551c0 .545.427.973.97.973.543 0 .97-.428.97-.973v-5.524a.962.962 0 0 0-.97-.972h-20.512v-5.213a.962.962 0 0 0-.969-.972.962.962 0 0 0-.97.972v5.213H242.26a.962.962 0 0 0-.97.972v5.524c0 .506.427.934.97.934zM407.28 51.933a.962.962 0 0 0-.968.972v19.917c0 .545.426.973.969.973h10.624c.426 1.828 2.055 3.19 3.994 3.19 2.287 0 4.148-1.867 4.148-4.163 0-2.295-1.86-4.162-4.148-4.162-1.939 0-3.568 1.362-3.994 3.19h-9.655V52.905a.962.962 0 0 0-.97-.972zm14.657 18.672c1.202 0 2.21.973 2.21 2.217 0 1.206-.969 2.218-2.21 2.218-1.24 0-2.21-.973-2.21-2.218 0-1.206 1.008-2.217 2.21-2.217zM383.047 73.795h10.624c.543 0 .97-.428.97-.973V52.905a.962.962 0 0 0-.97-.972.962.962 0 0 0-.97.972V71.85h-9.654c-.426-1.828-2.055-3.19-3.993-3.19-2.288 0-4.15 1.867-4.15 4.162 0 2.296 1.862 4.163 4.15 4.163 1.938-.04 3.567-1.4 3.993-3.19zm-6.204-.973c0-1.206.97-2.217 2.21-2.217 1.241 0 2.21.973 2.21 2.217 0 1.206-.969 2.218-2.21 2.218a2.213 2.213 0 0 1-2.21-2.218zM400.65 44.775a.962.962 0 0 0-.969.972v29.37a4.123 4.123 0 0 0-3.18 4.007c0 2.296 1.862 4.163 4.15 4.163 2.287 0 4.148-1.867 4.148-4.163a4.123 4.123 0 0 0-3.18-4.006v-29.37a.987.987 0 0 0-.968-.973zm2.172 34.388c0 1.206-.97 2.218-2.21 2.218a2.213 2.213 0 0 1-2.21-2.218c0-1.206.969-2.217 2.21-2.217 1.24 0 2.21 1.011 2.21 2.217zM288.865 73.795h83.752c.543 0 .97-.428.97-.973a.962.962 0 0 0-.97-.972h-83.752a.962.962 0 0 0-.969.972c0 .545.427.973.97.973zM296.155 54.189h16.556v6.613h-3.8c-.542 0-1.008.467-1.008 1.011 0 .545.466 1.012 1.009 1.012h23.148c.542 0 1.008-.467 1.008-1.012 0-.544-.466-1.011-1.008-1.011h-3.8v-6.613h1.202c.543 0 1.008-.467 1.008-1.012 0-.544-.465-1.01-1.008-1.01h-33.268a1.74 1.74 0 0 1-1.745-1.751V17.077c0-.972.775-1.75 1.745-1.75h48.66c.97 0 1.746.778 1.746 1.75v3.385c0 .544.465 1.011 1.008 1.011.543 0 1.008-.467 1.008-1.011v-3.385c0-2.061-1.667-3.773-3.761-3.773h-48.7a3.77 3.77 0 0 0-3.761 3.773v33.339c.039 2.1 1.706 3.773 3.76 3.773zm29.08 0c.543 0 1.008.467 1.008 1.011v4.59c0 .545-.465 1.012-1.008 1.012h-9.46a1.028 1.028 0 0 1-1.009-1.011V55.2c0-.545.466-1.012 1.009-1.012h9.46z"/>
        <path d="M334.037 27.23v4.63c0 .544.465 1.011 1.008 1.011.543 0 1.008-.467 1.008-1.011l.039-4.668c0-.545.465-1.012 1.008-1.012l16.79.04c.542 0 1.007.466 1.007 1.01v16.806l-.038 10.075c0 .545-.466 1.012-1.009 1.012h-16.789a1.028 1.028 0 0 1-1.008-1.012v-.039c0-.544-.465-1.011-1.008-1.011-.543 0-1.008.467-1.008 1.011v5.64a3.05 3.05 0 0 0 3.063 3.074h16.75a3.05 3.05 0 0 0 3.064-3.073V27.23a3.05 3.05 0 0 0-3.064-3.074H337.1a3.075 3.075 0 0 0-3.063 3.074zm20.822 32.56c0 .545-.466 1.012-1.009 1.012l-16.75-.039a1.028 1.028 0 0 1-1.008-1.011v-1.595c0-.545.465-1.012 1.008-1.012h16.79c.542 0 1.007.467 1.007 1.012l-.038 1.634z"/>
        <path d="M327.407 32.677a1.028 1.028 0 0 0-1.435 0l-3.024 3.034c-.776.778-.776 2.062 0 2.879l3.024 3.034a1.028 1.028 0 0 0 1.435 0 1.036 1.036 0 0 0 0-1.44l-2.017-2.022h13.106c.543 0 1.008-.467 1.008-1.012 0-.544-.465-1.011-1.008-1.011H325.39l2.017-2.023a1.036 1.036 0 0 0 0-1.44zM325.662 46.253h13.105l-2.016 2.023a1.036 1.036 0 0 0 0 1.44 1.028 1.028 0 0 0 1.435 0l3.76-3.774a.976.976 0 0 0 .311-.7c0-.273-.116-.545-.31-.7l-3.761-3.774a1.028 1.028 0 0 0-1.435 0 1.036 1.036 0 0 0 0 1.44l2.016 2.022h-13.105c-.543 0-1.008.467-1.008 1.012 0 .544.465 1.011 1.008 1.011zM383.551 93.129h.698c.543 0 .97-.428.97-.973a.962.962 0 0 0-.97-.972h-.698a.962.962 0 0 0-.97.972c0 .545.427.973.97.973zM378.666 93.129h.698c.543 0 .969-.428.969-.973a.962.962 0 0 0-.97-.972h-.697a.962.962 0 0 0-.97.972c.04.545.466.973.97.973zM373.819 93.129h.698c.543 0 .97-.428.97-.973a.962.962 0 0 0-.97-.972h-.698a.962.962 0 0 0-.97.972c.04.545.466.973.97.973zM384.21 101.181h-65.76a.962.962 0 0 0-.97.973v48.548c0 .545.427.972.97.972h65.76c.543 0 .97-.427.97-.972v-48.548a.962.962 0 0 0-.97-.973zm-.93 47.576a.962.962 0 0 1-.97.972h-61.96a.962.962 0 0 1-.97-.972V104.06c0-.545.427-.973.97-.973h61.96c.543 0 .97.428.97.973v44.697zM318.45 93.129h46.645c.543 0 .97-.428.97-.973a.962.962 0 0 0-.97-.972H318.45a.962.962 0 0 0-.97.972c.04.545.466.973.97.973z"/>
        <path d="M390.647 155.681v-68.62a.962.962 0 0 0-.97-.973h-76.694a.962.962 0 0 0-.97.972v68.621c0 .545.427.973.97.973h76.695c.542 0 .969-.428.969-.973zm-76.695-66.715c0-.544.427-.972.97-.972h72.856c.542 0 .969.428.969.972v6.419a.962.962 0 0 1-.97.972h-72.856a.962.962 0 0 1-.969-.972v-6.419zm74.756 64.81a.962.962 0 0 1-.97.972h-72.817a.962.962 0 0 1-.969-.973V99.197c0-.544.427-.972.97-.972h72.856c.542 0 .969.428.969.972v54.578h-.039z"/>
        <path d="M352.144 108.572a.944.944 0 0 0-1.628 0l-20.9 34.622c-.387.622.078 1.44.815 1.44h41.798c.737 0 1.202-.818.815-1.44l-20.9-34.622zm16.712 34.194h-35.052c-.736 0-1.202-.817-.814-1.44l17.526-29.058a.944.944 0 0 1 1.628 0l17.526 29.059c.388.622-.077 1.44-.814 1.44z"/>
        <path d="M351.33 121.176a.962.962 0 0 0-.97.973v10.075c0 .545.427.973.97.973.543 0 .97-.428.97-.973v-10.075a.962.962 0 0 0-.97-.973zM351.33 135.103a.962.962 0 0 0-.97.972v.117c0 .545.427.972.97.972.543 0 .97-.427.97-.972v-.117a.962.962 0 0 0-.97-.972zM430.74 73.29c.154.31.503.505.852.505h12.02c.31 0 .62-.156.814-.428.194-.272.194-.622.078-.934l-5.118-11.942c-.155-.35-.466-.584-.815-.584-.349-.039-.698.156-.891.467l-6.94 11.943a.886.886 0 0 0 0 .972zm7.638-10.27l3.76 8.791h-8.879l5.119-8.792zM405.807 179.333v-8.83c0-2.257-1.86-4.124-4.11-4.124h-54.36c-2.25 0-4.11 1.867-4.11 4.123v8.831c0 1.284.581 2.412 1.512 3.19a4.067 4.067 0 0 0-1.513 3.19v8.791c0 2.257 1.862 4.124 4.11 4.124h54.361c2.25 0 4.11-1.867 4.11-4.124v-8.83c0-1.284-.581-2.412-1.512-3.19a4.047 4.047 0 0 0 1.512-3.151zm-60.642-8.83c0-1.206.97-2.179 2.171-2.179h54.361c1.202 0 2.172.973 2.172 2.178v8.831c0 1.206-.97 2.178-2.172 2.178h-54.36a2.171 2.171 0 0 1-2.172-2.178v-8.83zm58.704 24.001c0 1.206-.97 2.179-2.172 2.179h-54.36a2.171 2.171 0 0 1-2.172-2.179v-8.83c0-1.206.97-2.179 2.171-2.179h54.361c1.202 0 2.172.973 2.172 2.179v8.83z"/>
        <path d="M352.61 179.41c2.287 0 4.149-1.866 4.149-4.162 0-2.295-1.862-4.162-4.15-4.162-2.287 0-4.148 1.867-4.148 4.162a4.136 4.136 0 0 0 4.149 4.163zm0-6.34c1.202 0 2.21.972 2.21 2.217 0 1.206-.97 2.218-2.21 2.218-1.241 0-2.21-.973-2.21-2.218 0-1.206 1.008-2.217 2.21-2.217zM352.61 185.907c-2.288 0-4.15 1.867-4.15 4.163 0 2.295 1.862 4.162 4.15 4.162 2.287 0 4.149-1.867 4.149-4.162 0-2.296-1.862-4.163-4.15-4.163zm0 6.341a2.213 2.213 0 0 1-2.21-2.217c0-1.206.969-2.218 2.21-2.218 1.24 0 2.21.973 2.21 2.218a2.213 2.213 0 0 1-2.21 2.217zM305.5 173.653h21.248a.53.53 0 0 0 .542-.544v-.272a.53.53 0 0 0-.542-.545h-21.249a.53.53 0 0 0-.542.545v.272a.53.53 0 0 0 .542.544zM305.5 178.594h21.248a.53.53 0 0 0 .542-.545v-.272a.53.53 0 0 0-.542-.545h-21.249a.53.53 0 0 0-.542.545v.272a.53.53 0 0 0 .542.545zM305.5 183.534h21.248a.53.53 0 0 0 .542-.544v-.273a.53.53 0 0 0-.542-.544h-21.249a.53.53 0 0 0-.542.544v.273a.53.53 0 0 0 .542.544zM305.5 188.475h21.248a.53.53 0 0 0 .542-.545v-.272a.53.53 0 0 0-.542-.545h-21.249a.53.53 0 0 0-.542.545v.272a.53.53 0 0 0 .542.545zM305.5 193.415h21.248a.53.53 0 0 0 .542-.545v-.272a.53.53 0 0 0-.542-.544h-21.249a.53.53 0 0 0-.542.544v.272a.53.53 0 0 0 .542.545zM305.5 198.355h21.248a.53.53 0 0 0 .542-.544v-.272a.53.53 0 0 0-.542-.545h-21.249a.53.53 0 0 0-.542.545v.272a.53.53 0 0 0 .542.544zM305.5 203.296h21.248a.53.53 0 0 0 .542-.545v-.272a.53.53 0 0 0-.542-.545h-21.249a.53.53 0 0 0-.542.545v.272a.53.53 0 0 0 .542.545zM305.5 208.236h21.248a.53.53 0 0 0 .542-.544v-.273a.53.53 0 0 0-.542-.544h-21.249a.53.53 0 0 0-.542.544v.273a.53.53 0 0 0 .542.544zM305.5 213.177h21.248a.53.53 0 0 0 .542-.545v-.233a.53.53 0 0 0-.542-.545h-21.249a.53.53 0 0 0-.542.545v.272c0 .272.232.506.542.506zM305.5 218.117h21.248a.53.53 0 0 0 .542-.544v-.273a.53.53 0 0 0-.542-.544h-21.249a.53.53 0 0 0-.542.544v.273a.53.53 0 0 0 .542.544zM305.5 223.058h21.248a.53.53 0 0 0 .542-.545v-.272a.53.53 0 0 0-.542-.545h-21.249a.53.53 0 0 0-.542.545v.272a.53.53 0 0 0 .542.545zM305.5 227.998h21.248a.53.53 0 0 0 .542-.545v-.272a.53.53 0 0 0-.542-.545h-21.249a.53.53 0 0 0-.542.545v.272a.53.53 0 0 0 .542.545zM305.5 246.048h21.248a.53.53 0 0 0 .542-.545v-7.897a.53.53 0 0 0-.542-.544h-21.249a.53.53 0 0 0-.542.544v7.897a.53.53 0 0 0 .542.545zm.891-7.08a.53.53 0 0 1 .543-.545h18.379a.53.53 0 0 1 .543.545v5.252a.53.53 0 0 1-.543.544h-18.379a.53.53 0 0 1-.543-.544v-5.252z"/>
        <path d="M303.677 251.494h24.854a.53.53 0 0 0 .543-.545v-1.867h3.45a.53.53 0 0 0 .544-.544V166.69a.53.53 0 0 0-.543-.544h-32.842a.53.53 0 0 0-.542.544v81.887a.53.53 0 0 0 .542.544h3.451v1.867c.039.273.272.506.543.506zm23.962-1.867a.53.53 0 0 1-.543.544h-21.984a.53.53 0 0 1-.543-.544.53.53 0 0 1 .543-.545h21.984c.31 0 .543.273.543.545zm-27.025-2.373v-79.241a.53.53 0 0 1 .543-.545h29.933a.53.53 0 0 1 .543.545v79.24a.53.53 0 0 1-.543.545h-29.972c-.271-.038-.504-.272-.504-.544zM371.764 294.79h2.249c.582 0 1.086.506 1.086 1.09v5.407l.814-.389c2.598-1.206 4.304-3.812 4.304-6.69 0-2.685-1.435-5.097-3.761-6.42v-20.345c2.326-1.322 3.76-3.734 3.76-6.418 0-2.879-1.705-5.485-4.303-6.691l-.814-.39v5.408c0 .622-.504 1.09-1.086 1.09h-2.249a1.111 1.111 0 0 1-1.086-1.09v-5.407l-.814.389c-2.598 1.206-4.304 3.812-4.304 6.69 0 2.685 1.435 5.097 3.761 6.42v20.345c-2.326 1.322-3.76 3.734-3.76 6.418 0 1.984.813 3.851 2.17 5.213.62.622 1.319 1.128 2.172 1.478l.814.39v-5.408a1.03 1.03 0 0 1 1.047-1.09zm-2.249 1.09v3.54a6.195 6.195 0 0 1-2.83-5.213c0-2.373 1.318-4.473 3.412-5.563l.31-.155v-21.746l-.31-.155c-2.133-1.05-3.412-3.19-3.412-5.563 0-2.1 1.085-4.046 2.83-5.213v3.54c0 1.206 1.047 2.256 2.249 2.256h2.249a2.254 2.254 0 0 0 2.249-2.256v-3.54a6.195 6.195 0 0 1 2.83 5.213c0 2.373-1.318 4.473-3.412 5.563l-.31.155V288.49l.31.155c2.133 1.05 3.412 3.19 3.412 5.563 0 2.1-1.085 4.046-2.83 5.213v-3.54c0-1.206-1.047-2.256-2.25-2.256h-2.248a2.254 2.254 0 0 0-2.249 2.256zM411.158 310.312h-16.324v-.311l-4.924-2.606h-16.362c-.737 0-1.435.31-1.978.817-.543.505-.814 1.244-.814 1.983v4.124c0 .74.31 1.478.814 1.984a2.75 2.75 0 0 0 1.978.817h16.362l4.924-2.607v-.31h16.324l1.512.894 6.398-.7v-4.28l-6.398-.7-1.512.895zm-21.558 5.68h-16.091c-.892 0-1.667-.778-1.667-1.673v-4.124c0-.427.155-.855.465-1.167.31-.31.737-.466 1.163-.466h16.091l4.071 2.14v3.19l-4.032 2.1zm5.234-3.735v-.817h15.898V313.035h-15.898v-.778zm23.07-1.089v2.217l-4.962.545-1.047-.622v-2.102l1.047-.622 4.963.584z"/>
        <path d="M373.389 311.412l.006-1.167 15.394.086-.007 1.167zM374.013 313.191h14.734v1.167h-14.734z"/>
    </g>
</svg>
