<svg xmlns="http://www.w3.org/2000/svg" width="16" height="16" viewBox="0 0 16 16">
    <path fill="#FFE35B" fill-rule="nonzero" d="M8.047.001a1.05 1.05 0 0 0-1.04.744l-1.453 4.51H1.047c-.45 0-.85.302-.993.749-.143.447.004.94.365 1.222l3.62 2.84-1.307 4.522c-.129.447.027.93.388 1.203a1.01 1.01 0 0 0 1.215.012L8 13.125l3.666 2.678a1.01 1.01 0 0 0 1.214-.012c.36-.273.517-.756.388-1.203l-1.307-4.522 3.62-2.84c.36-.283.508-.775.365-1.222a1.052 1.052 0 0 0-.993-.75h-4.507L8.992.746a1.055 1.055 0 0 0-.945-.744z"/>
</svg>
