<svg xmlns="http://www.w3.org/2000/svg" width="48" height="48" viewBox="0 0 48 48">
    <g fill="none" fill-rule="nonzero">
        <path fill="#FBE4D6" d="M39.127 34.565c-2.6 5.762-6.61 10.82-12.799 12.425C9.427 42.603 7.744 12.493 7.744 12.493c5.032-1.254 7.717-7.38 7.717-7.38H36.177s2.685 6.126 7.717 7.38c0 0-.137 6.182-1.86 13.352-1.599 6.66-.09 2.477-2.907 8.72z"/>
        <path fill="#F57E20" d="M39.959 24.483a.656.656 0 0 1-.638-.809c1.407-5.86 1.744-11.102 1.82-12.707-1.058-.337-2.083-.89-3.058-1.653-.89-.698-1.745-1.572-2.531-2.593a18.868 18.868 0 0 1-1.867-2.964H13.533a.657.657 0 0 1-.655-.654c0-.36.294-.655.655-.655h20.565c.259 0 .494.154.6.393.006.013.667 1.5 1.908 3.107.72.93 1.493 1.722 2.295 2.347.986.767 2.017 1.29 3.071 1.552a.657.657 0 0 1 .498.652c0 .062-.157 6.336-1.876 13.49a.654.654 0 0 1-.635.494z"/>
        <path fill="#F57E20" d="M24.25 45.631a.68.68 0 0 1-.165-.02c-4.004-1.04-7.5-3.558-10.395-7.487-2.286-3.101-4.201-7.09-5.694-11.847-.73-2.324-1.749-6.11-2.452-10.932-.423-2.888-.53-4.754-.534-4.833a.654.654 0 0 1 .494-.671c4.67-1.16 7.253-6.945 7.279-7.004a.655.655 0 0 1 1.198.524c-.03.066-.717 1.624-2.053 3.356-.789 1.025-1.64 1.896-2.53 2.594-.97.76-1.991 1.312-3.042 1.65.147 1.833.789 8.238 2.894 14.947 1.45 4.613 3.3 8.467 5.497 11.446 2.669 3.621 5.864 5.956 9.499 6.941 5.13-1.394 9.233-5.435 12.203-12.02a.656.656 0 0 1 1.195.54c-1.45 3.213-3.192 5.891-5.18 7.957-2.334 2.427-5.042 4.054-8.054 4.836a.514.514 0 0 1-.16.023z"/>
        <path fill="#3A424D" d="M23.738 41.539a.593.593 0 0 1-.235-.046c-3.013-1.17-5.655-3.441-7.859-6.748-1.735-2.607-3.205-5.868-4.364-9.686-1.965-6.47-2.374-12.415-2.377-12.474l-.036-.573.563-.112c1.938-.386 3.631-1.398 5.026-3.012 1.06-1.224 1.542-2.354 1.545-2.367l.17-.4h7.027c.36 0 .655.295.655.655 0 .36-.295.655-.655.655H17.02a11.932 11.932 0 0 1-1.543 2.279c-1.437 1.676-3.231 2.822-5.222 3.346.15 1.601.704 6.454 2.282 11.653 1.123 3.69 2.538 6.83 4.201 9.328 2.05 3.075 4.482 5.174 7.236 6.244.337.131.504.511.373.848a.65.65 0 0 1-.609.41z"/>
        <path fill="#F57E20" d="M22.69 29.205a.656.656 0 0 1-.441-.174l-4.624-4.237a.657.657 0 0 1 .888-.966l4.187 3.838 14.184-12.622a.656.656 0 0 1 .924.052.656.656 0 0 1-.053.923L23.126 29.038a.648.648 0 0 1-.435.167z"/>
    </g>
</svg>
